SplineFontDB: 3.0
FontName: AnkaCoder-Norm-SkelB
FullName: Anna Shugol/Coder Bold
FamilyName: Anka/Coder
Weight: Bold
Copyright: Copyright (c) 2010, Andrey Makarov (makarov@bmstu.ru, mka-at-mailru@mail.ru),\nwith Reserved Font Name Anka/Coder Narrow.\n---------------------------------\nThe Anka/* are members of Anna Shugol name font family; March 2010
Version: 001.000
StrokeWidth: 100
ItalicAngle: 0
UnderlinePosition: -292
UnderlineWidth: 50
Ascent: 1638
Descent: 410
LayerCount: 2
Layer: 0 0 "Back"  1
Layer: 1 0 "Fore"  0
StrokedFont: 1
NeedsXUIDChange: 1
XUID: [1021 77 1780377344 14890955]
UseXUID: 1
BaseHoriz: 0
FSType: 8
OS2Version: 1
OS2_WeightWidthSlopeOnly: 0
OS2_UseTypoMetrics: 1
CreationTime: 1260467214
ModificationTime: 1268391242
PfmFamily: 49
TTFWeight: 700
TTFWidth: 4
LineGap: 0
VLineGap: 0
Panose: 2 11 8 9 2 5 2 2 2 4
OS2TypoAscent: 0
OS2TypoAOffset: 1
OS2TypoDescent: 0
OS2TypoDOffset: 1
OS2TypoLinegap: 0
OS2WinAscent: 0
OS2WinAOffset: 1
OS2WinDescent: 0
OS2WinDOffset: 1
HheadAscent: 0
HheadAOffset: 1
HheadDescent: 0
HheadDOffset: 1
OS2SubXSize: 553
OS2SubYSize: 1229
OS2SubXOff: 0
OS2SubYOff: 283
OS2SupXSize: 553
OS2SupYSize: 1229
OS2SupXOff: 0
OS2SupYOff: 977
OS2StrikeYSize: 102
OS2StrikeYPos: 530
OS2FamilyClass: 1285
OS2Vendor: 'AVM1'
OS2CodePages: 40000097.cfd60000
OS2UnicodeRanges: 800002ef.000079eb.00000000.00000000
DEI: 91125
ShortTable: maxp 16
  0
  0
  0
  0
  0
  0
  0
  2
  1
  0
  9
  0
  256
  0
  0
  0
EndShort
TtTable: prep
PUSHW_1
 511
SCANCTRL
SVTCA[y-axis]
MPPEM
PUSHB_1
 8
LT
IF
PUSHB_2
 1
 1
INSTCTRL
EIF
PUSHB_2
 70
 6
CALL
IF
POP
PUSHB_1
 16
EIF
MPPEM
PUSHB_1
 20
GT
IF
POP
PUSHB_1
 128
EIF
SCVTCI
PUSHB_1
 6
CALL
NOT
IF
EIF
EndTTInstrs
TtTable: fpgm
PUSHB_1
 0
FDEF
PUSHB_1
 0
SZP0
MPPEM
PUSHB_1
 42
LT
IF
PUSHB_1
 74
SROUND
EIF
PUSHB_1
 0
SWAP
MIAP[rnd]
RTG
PUSHB_1
 6
CALL
IF
RTDG
EIF
MPPEM
PUSHB_1
 42
LT
IF
RDTG
EIF
DUP
MDRP[rp0,rnd,grey]
PUSHB_1
 1
SZP0
MDAP[no-rnd]
RTG
ENDF
PUSHB_1
 1
FDEF
DUP
DUP
MDRP[rp0,min,white]
MDAP[rnd]

StartChar: exclam
Encoding: 33 33 1
Width: 1229
VWidth: 1708
GlyphClass: 2
Flags: W
HStem: -87 236<440.831 634.094>
VStem: 413 249<-57.6871 120.037 974.824 1386.02> 455 168<384 842.752>
LayerCount: 2
Fore
SplineSet
730 51 m 0xc0
 730 -38 676 -87 615 -87 c 0
 555 -87 500 -37 500 51 c 0
 500 123 550 175 615 175 c 0
 675 175 730 130 730 51 c 0xc0
612 1429 m 0
 680 1429 749 1364 749 1255 c 1
 716 393 l 1
 518 393 l 1xa0
 486 1256 l 1
 486 1364 549 1429 612 1429 c 0
EndSplineSet
EndChar

StartChar: quotedbl
Encoding: 34 34 2
Width: 1229
VWidth: 1708
GlyphClass: 2
Flags: W
LayerCount: 2
Fore
SplineSet
402 1065 m 2
 388 1043 367 1032 348 1032 c 3
 323 1032 302 1051 302 1083 c 3
 302 1090 302 1098 304 1105 c 2
 361 1331 l 2
 370 1398 413 1426 452 1426 c 3
 503 1426 531 1364 531 1301 c 3
 531 1286 528 1272 520 1260 c 2
 402 1065 l 2
800 1065 m 2
 786 1043 766 1032 748 1032 c 3
 723 1032 700 1051 700 1083 c 3
 700 1090 701 1098 703 1105 c 2
 759 1331 l 2
 768 1398 811 1426 849 1426 c 3
 900 1426 929 1364 929 1301 c 3
 929 1286 925 1272 918 1260 c 2
 800 1065 l 2
EndSplineSet
EndChar

StartChar: numbersign
Encoding: 35 35 3
Width: 1229
VWidth: 1708
GlyphClass: 2
Flags: W
LayerCount: 2
Back
SplineSet
0 0 m 1
 262 1350 l 1
 1229 1350 l 1
 967 0 l 1
 0 0 l 1
EndSplineSet
Fore
SplineSet
-61 973 m 25
 1292 973 l 25
-61 416 m 25
 1292 416 l 25
982 1425 m 25
 685 -99 l 25
540 1425 m 25
 242 -99 l 25
EndSplineSet
EndChar

StartChar: dollar
Encoding: 36 36 4
Width: 1229
VWidth: 2334
GlyphClass: 2
Flags: MW
LayerCount: 2
Fore
SplineSet
616 1494 m 25
 616 -93 l 25
145 338 m 0
 145 165 390 80 604 80 c 10
 627 80 l 18
 837 80 1037 206 1037 350 c 10
 1037 378 l 18
 1037 504 949 620 782 684 c 6
 425 808 l 6
 313 847 244 927 244 1033 c 2
 244 1060 l 2
 244 1228 401 1320 613 1320 c 10
 622 1320 l 18
 801 1320 952 1276 1001 1162 c 0
 1025 1125 1028 1087 1028 1060 c 0
EndSplineSet
EndChar

StartChar: percent
Encoding: 37 37 5
Width: 1229
VWidth: 1708
GlyphClass: 2
Flags: MW
LayerCount: 2
Fore
SplineSet
71 106 m 29
 1160 1295 l 29
332 1303 m 7
 430 1303 480 1224 480 1134 c 7
 480 1047 430 927 332 927 c 7
 234 927 153 1043 153 1134 c 7
 153 1226 235 1303 332 1303 c 7
900 445 m 7
 999 445 1080 365 1080 271 c 7
 1080 179 999 94 900 94 c 7
 804 94 752 177 752 271 c 7
 752 366 805 445 900 445 c 7
EndSplineSet
EndChar

StartChar: ampersand
Encoding: 38 38 6
Width: 1229
VWidth: 2334
GlyphClass: 2
Flags: MW
LayerCount: 2
Fore
SplineSet
1143 14 m 5
 529 791 l 6
 457 871 356 1036 356 1129 c 6
 356 1149 l 6
 356 1253 447 1320 604 1320 c 14
 630 1320 l 22
 793 1320 895 1247 895 1144 c 6
 895 1091 l 6
 895 1047 811 943 762 910 c 6
 348 631 l 5
 248 542 145 474 145 378 c 14
 145 350 l 22
 145 177 364 80 573 80 c 14
 597 80 l 22
 767 80 886 149 949 259 c 6
 1160 585 l 4
EndSplineSet
EndChar

StartChar: quotesingle
Encoding: 39 39 7
Width: 1229
VWidth: 1708
GlyphClass: 2
Flags: W
LayerCount: 2
Fore
SplineSet
600 1065 m 2
 586 1043 565 1032 546 1032 c 3
 521 1032 500 1051 500 1083 c 3
 500 1090 500 1098 502 1105 c 2
 559 1331 l 2
 568 1398 611 1426 650 1426 c 3
 701 1426 729 1364 729 1301 c 3
 729 1286 726 1272 718 1260 c 2
 600 1065 l 2
EndSplineSet
EndChar

StartChar: parenleft
Encoding: 40 40 8
Width: 1229
VWidth: 1708
GlyphClass: 2
Flags: MW
LayerCount: 2
Fore
SplineSet
994 1480 m 21
 719 1322 466 1053 466 708 c 31
 466 385 719 111 994 -80 c 13
EndSplineSet
EndChar

StartChar: parenright
Encoding: 41 41 9
Width: 1229
VWidth: 1708
GlyphClass: 2
Flags: MW
LayerCount: 2
Fore
SplineSet
235 1480 m 21
 513 1322 766 1053 766 708 c 31
 766 385 513 111 235 -80 c 13
EndSplineSet
EndChar

StartChar: asterisk
Encoding: 42 42 10
Width: 1229
VWidth: 1708
GlyphClass: 2
Flags: MW
LayerCount: 2
Fore
SplineSet
417 320 m 29
 615 594 l 29
 615 935 l 29
615 594 m 29
 814 320 l 29
936 700 m 29
 615 594 l 29
 295 700 l 29
EndSplineSet
EndChar

StartChar: plus
Encoding: 43 43 11
Width: 1229
VWidth: 1708
GlyphClass: 2
Flags: MW
LayerCount: 2
Fore
SplineSet
615 182 m 29
 615 1001 l 29
234 594 m 29
 996 594 l 29
EndSplineSet
EndChar

StartChar: comma
Encoding: 44 44 12
Width: 1229
VWidth: 1947
GlyphClass: 2
Flags: MW
LayerCount: 2
Fore
SplineSet
705 47 m 21
 704 -103 688 -289 475 -315 c 13
 461 -260 l 21
 525 -235 656 -138 561 -49 c 13
 705 47 l 21
705 47 m 4
 705 -23 668 -68 615 -68 c 4
 563 -68 525 -23 525 47 c 4
 525 110 561 153 615 153 c 4
 667 153 705 111 705 47 c 4
EndSplineSet
EndChar

StartChar: hyphen
Encoding: 45 45 13
Width: 1229
VWidth: 1708
GlyphClass: 2
Flags: MW
LayerCount: 2
Fore
SplineSet
234 594 m 29
 996 594 l 29
EndSplineSet
EndChar

StartChar: period
Encoding: 46 46 14
Width: 1229
VWidth: 1708
GlyphClass: 2
Flags: MW
LayerCount: 2
Fore
SplineSet
705 47 m 0
 705 -23 668 -68 615 -68 c 0
 564 -68 525 -24 525 47 c 0
 525 110 561 153 615 153 c 0
 667 153 705 112 705 47 c 0
EndSplineSet
EndChar

StartChar: slash
Encoding: 47 47 15
Width: 1229
VWidth: 1708
GlyphClass: 2
Flags: MW
LayerCount: 2
Fore
SplineSet
235 -25 m 29
 994 1425 l 29
EndSplineSet
EndChar

StartChar: zero
Encoding: 48 48 16
Width: 1229
VWidth: 1708
GlyphClass: 2
Flags: MW
LayerCount: 2
Back
SplineSet
0 1476 m 5
 1096 1476 l 5
 1229 1199 l 5
 1229 -51 l 5
 138 -51 l 5
 0 210 l 5
 0 1476 l 5
EndSplineSet
Fore
SplineSet
-60 -72 m 25
 1296 1503 l 25
616 1320 m 3
 952 1320 1014 1055 1014 717 c 3
 1014 350 944 80 616 80 c 3
 278 80 221 423 221 717 c 3
 221 1055 283 1320 616 1320 c 3
EndSplineSet
EndChar

StartChar: one
Encoding: 49 49 17
Width: 1229
VWidth: 1708
GlyphClass: 2
Flags: MW
LayerCount: 2
Back
SplineSet
-61 348 m 1
 418 750 l 1
 552 1005 l 1
 457 1124 l 1
 706 1410 l 1
 1292 1410 l 1
 1292 -25 l 1
 -61 -25 l 1
 -61 348 l 1
EndSplineSet
Fore
SplineSet
750 0 m 25
 750 1320 l 25
 165 956 l 25
EndSplineSet
EndChar

StartChar: two
Encoding: 50 50 18
Width: 1229
VWidth: 2334
GlyphClass: 2
Flags: MW
LayerCount: 2
Back
SplineSet
170 -25 m 1
 170 525 l 1
 71 544 l 1
 71 1479 l 1
 1099 1479 l 1
 1099 -25 l 1
 170 -25 l 1
EndSplineSet
Fore
SplineSet
252 1166 m 1
 314 1264 395 1320 604 1320 c 10
 627 1320 l 18
 872 1320 994 1221 994 1061 c 10
 994 1024 l 18
 994 980 965 873 889 810 c 2
 403 414 l 2
 311 338 249 204 235 105 c 1
 1099 105 l 9
EndSplineSet
EndChar

StartChar: three
Encoding: 51 51 19
Width: 1229
VWidth: 2334
GlyphClass: 2
Flags: MW
LayerCount: 2
Fore
SplineSet
261 1174 m 1
 317 1269 460 1320 604 1320 c 10
 627 1320 l 18
 822 1320 933 1226 933 1087 c 10
 933 1050 l 18
 933 944 811 789 630 789 c 1
 400 789 l 9
 627 789 l 18
 872 789 994 670 994 461 c 10
 994 443 l 18
 994 208 872 80 627 80 c 10
 604 80 l 18
 439 80 235 151 235 320 c 1
EndSplineSet
EndChar

StartChar: four
Encoding: 52 52 20
Width: 1229
VWidth: 1708
GlyphClass: 2
Flags: MW
LayerCount: 2
Back
SplineSet
131 1425 m 5
 1160 1425 l 1
 1160 0 l 1
 131 0 l 5
 131 1425 l 5
EndSplineSet
Fore
SplineSet
902 0 m 25
 902 1322 l 25
 204 433 l 25
 1160 433 l 25
EndSplineSet
EndChar

StartChar: five
Encoding: 53 53 21
Width: 1229
VWidth: 2334
GlyphClass: 2
Flags: MW
LayerCount: 2
Back
SplineSet
-61 1425 m 5
 1292 1425 l 5
 1292 -54 l 5
 -61 -54 l 5
 -61 167 l 5
 492 402 l 5
 492 553 l 5
 -61 822 l 5
 -61 1425 l 5
EndSplineSet
Fore
SplineSet
1068 1295 m 1
 360 1295 l 1
 235 497 l 1
 235 730 453 854 604 854 c 10
 627 854 l 18
 872 854 994 716 994 508 c 10
 994 452 l 18
 994 212 872 80 627 80 c 10
 536 80 l 18
 381 80 133 181 133 350 c 1
EndSplineSet
EndChar

StartChar: six
Encoding: 54 54 22
Width: 1229
VWidth: 2334
GlyphClass: 2
Flags: MW
LayerCount: 2
Fore
SplineSet
235 458 m 25
 235 944 l 18
 235 1155 360 1320 604 1320 c 10
 627 1320 l 18
 800 1320 911 1291 962 1212 c 1
235 489 m 10
 235 433 l 18
 235 193 400 80 604 80 c 10
 627 80 l 18
 872 80 994 223 994 433 c 10
 994 489 l 18
 994 727 872 854 627 854 c 10
 604 854 l 18
 360 854 235 698 235 489 c 10
EndSplineSet
EndChar

StartChar: seven
Encoding: 55 55 23
Width: 1229
VWidth: 1708
GlyphClass: 2
Flags: MW
LayerCount: 2
Back
SplineSet
128 1485 m 1
 1099 1485 l 1
 1099 0 l 1
 128 0 l 1
 128 1485 l 1
EndSplineSet
Fore
SplineSet
130 1295 m 25
 1049 1295 l 17
 714 837 454 433 340 -45 c 9
EndSplineSet
EndChar

StartChar: eight
Encoding: 56 56 24
Width: 1229
VWidth: 2334
GlyphClass: 2
Flags: MW
LayerCount: 2
Fore
SplineSet
627 1320 m 10
 604 1320 l 18
 421 1320 299 1212 299 1108 c 2
 299 1061 l 2
 299 919 421 789 602 789 c 10
 630 789 l 18
 811 789 933 919 933 1060 c 10
 933 1107 l 18
 933 1212 811 1320 627 1320 c 10
235 452 m 10
 235 404 l 18
 235 201 400 80 604 80 c 10
 627 80 l 18
 872 80 994 199 994 404 c 10
 994 452 l 18
 994 690 872 789 627 789 c 10
 604 789 l 18
 360 789 235 660 235 452 c 10
EndSplineSet
EndChar

StartChar: nine
Encoding: 57 57 25
Width: 1229
VWidth: 2334
GlyphClass: 2
Flags: MW
LayerCount: 2
Fore
SplineSet
994 927 m 25
 994 437 l 18
 994 212 872 80 627 80 c 10
 604 80 l 18
 433 80 320 110 270 192 c 1
994 901 m 18
 994 663 872 551 627 551 c 10
 604 551 l 18
 363 551 235 693 235 901 c 10
 235 991 l 18
 235 1167 360 1320 604 1320 c 10
 627 1320 l 18
 828 1320 994 1211 994 991 c 10
 994 901 l 18
EndSplineSet
EndChar

StartChar: less
Encoding: 60 60 28
Width: 1229
VWidth: 1708
GlyphClass: 2
Flags: MW
LayerCount: 2
Back
SplineSet
272 1341 m 5
 959 1341 l 5
 959 -110 l 5
 272 -110 l 5
 272 1341 l 5
EndSplineSet
Fore
SplineSet
1176 1176 m 25
 288 594 l 25
 1176 11 l 25
EndSplineSet
EndChar

StartChar: equal
Encoding: 61 61 29
Width: 1229
VWidth: 1708
GlyphClass: 2
Flags: MW
LayerCount: 2
Fore
SplineSet
234 820 m 29
 996 820 l 29
234 408 m 29
 996 408 l 29
EndSplineSet
EndChar

StartChar: greater
Encoding: 62 62 30
Width: 1229
VWidth: 1708
GlyphClass: 2
Flags: MW
LayerCount: 2
Back
SplineSet
272 1341 m 5
 959 1341 l 5
 959 -110 l 5
 272 -110 l 5
 272 1341 l 5
EndSplineSet
Fore
SplineSet
56 11 m 25
 944 594 l 25
 56 1176 l 25
EndSplineSet
EndChar

StartChar: question
Encoding: 63 63 31
Width: 1229
VWidth: 1708
GlyphClass: 2
Flags: MW
LayerCount: 2
Fore
SplineSet
730 53 m 7xe0
 730 -37 676 -86 615 -86 c 7
 555 -86 500 -36 500 53 c 7
 500 124 550 176 615 176 c 7
 675 176 730 131 730 53 c 7xe0
616 352 m 25
 616 483 l 18
 616 551 653 611 714 662 c 2
 889 813 l 2
 953 866 994 924 994 1024 c 10
 994 1089 l 18
 994 1221 872 1320 627 1320 c 10
 604 1320 l 18
 360 1320 238 1221 235 1089 c 9
EndSplineSet
EndChar

StartChar: at
Encoding: 64 64 32
Width: 1229
VWidth: 1708
GlyphClass: 2
Flags: MW
LayerCount: 2
Fore
SplineSet
819 983 m 6
 819 983 959 985 1082 985 c 29
 1082 631 l 6
 1082 541 956 441 819 441 c 7
 640 441 584 569 584 719 c 7
 584 869 649 983 819 983 c 6
994 157 m 5
 895 85 736 80 616 80 c 7
 359 80 104 296 104 717 c 7
 104 1054 283 1320 616 1320 c 7
 883 1320 1082 1221 1082 1062 c 6
 1082 352 l 21
EndSplineSet
EndChar

StartChar: B
Encoding: 66 66 33
Width: 1229
VWidth: 1947
GlyphClass: 2
Flags: MW
LayerCount: 2
Fore
SplineSet
994 350 m 10
 994 487 l 18
 994 684 872 768 627 768 c 10
 235 768 l 25
 561 768 l 2
 811 768 927 821 927 1025 c 2
 927 1089 l 2
 927 1253 817 1295 561 1295 c 2
 235 1295 l 1
 235 105 l 1
 627 105 l 2
 872 105 994 181 994 350 c 10
EndSplineSet
EndChar

StartChar: C
Encoding: 67 67 34
Width: 1229
VWidth: 1947
GlyphClass: 2
Flags: MW
LayerCount: 2
Fore
SplineSet
984 329 m 1
 932 179 831 80 652 80 c 2
 621 80 l 2
 312 80 235 390 235 684 c 2
 235 746 l 2
 235 1060 307 1320 620 1320 c 2
 652 1320 l 2
 851 1320 952 1223 1000 1075 c 1
EndSplineSet
EndChar

StartChar: D
Encoding: 68 68 35
Width: 1229
VWidth: 1947
GlyphClass: 2
Flags: MW
LayerCount: 2
Fore
SplineSet
602 1295 m 2
 922 1295 994 1077 994 757 c 2
 994 660 l 2
 994 373 909 105 602 105 c 2
 235 105 l 1
 235 1295 l 1
 602 1295 l 2
EndSplineSet
EndChar

StartChar: E
Encoding: 69 69 36
Width: 1229
VWidth: 1708
GlyphClass: 2
Flags: MW
LayerCount: 2
Fore
SplineSet
938 768 m 25
 235 768 l 25
1099 1295 m 25
 235 1295 l 25
 235 106 l 25
 1099 106 l 25
EndSplineSet
EndChar

StartChar: F
Encoding: 70 70 37
Width: 1229
VWidth: 1708
GlyphClass: 2
Flags: MW
LayerCount: 2
Fore
SplineSet
938 768 m 25
 235 768 l 25
1099 1295 m 25
 235 1295 l 25
 235 -25 l 25
EndSplineSet
EndChar

StartChar: G
Encoding: 71 71 38
Width: 1229
VWidth: 1947
GlyphClass: 2
Flags: MW
LayerCount: 2
Fore
SplineSet
1000 1075 m 1
 952 1223 851 1320 652 1320 c 2
 627 1320 l 2
 313 1320 235 1060 235 746 c 2
 235 684 l 2
 235 390 319 80 627 80 c 2
 652 80 l 2
 831 80 956 177 994 275 c 1
 994 610 l 1
 675 610 l 25
EndSplineSet
EndChar

StartChar: H
Encoding: 72 72 39
Width: 1229
VWidth: 1947
GlyphClass: 2
Flags: MW
LayerCount: 2
Fore
SplineSet
235 717 m 29
 994 717 l 29
994 1400 m 29
 994 0 l 29
235 1400 m 29
 235 0 l 29
EndSplineSet
EndChar

StartChar: I
Encoding: 73 73 40
Width: 1229
VWidth: 1947
GlyphClass: 2
Flags: MW
LayerCount: 2
Fore
SplineSet
230 105 m 25
 999 105 l 25
230 1295 m 25
 999 1295 l 1
616 1296 m 1
 616 105 l 9
EndSplineSet
EndChar

StartChar: J
Encoding: 74 74 41
Width: 1229
VWidth: 1947
GlyphClass: 2
Flags: MW
LayerCount: 2
Fore
SplineSet
196 230 m 1
 245 122 334 80 482 80 c 10
 505 80 l 18
 689 80 792 201 792 368 c 10
 792 1295 l 25
404 1295 m 25
 1099 1295 l 25
EndSplineSet
EndChar

StartChar: K
Encoding: 75 75 42
Width: 1229
VWidth: 1947
GlyphClass: 2
Flags: MW
LayerCount: 2
Back
SplineSet
-61 1400 m 5
 1292 1400 l 5
 1292 0 l 5
 -61 0 l 5
 -61 1400 l 5
EndSplineSet
Fore
SplineSet
1160 -141 m 25
 512 778 l 25
1141 1524 m 25
 231 487 l 25
234 1400 m 25
 234 0 l 25
EndSplineSet
EndChar

StartChar: L
Encoding: 76 76 43
Width: 1229
VWidth: 1947
GlyphClass: 2
Flags: MW
LayerCount: 2
Fore
SplineSet
235 1400 m 25
 235 106 l 25
 1099 106 l 25
EndSplineSet
EndChar

StartChar: M
Encoding: 77 77 44
Width: 1229
VWidth: 1947
GlyphClass: 2
Flags: MW
LayerCount: 2
Back
SplineSet
0 1 m 1
 0 1401 l 1
 1229 1401 l 1
 1229 1 l 1
 819 1 l 1
 818 232 l 1
 421 232 l 1
 421 1 l 1
 0 1 l 1
EndSplineSet
Fore
SplineSet
164 -74 m 25
 315 1402 l 25
 616 364 l 25
 915 1402 l 25
 1066 -75 l 25
EndSplineSet
EndChar

StartChar: N
Encoding: 78 78 45
Width: 1229
VWidth: 1947
GlyphClass: 2
Flags: MW
LayerCount: 2
Back
SplineSet
-61 1400 m 5
 1292 1400 l 5
 1292 0 l 5
 -61 0 l 5
 -61 1400 l 5
EndSplineSet
Fore
SplineSet
235 0 m 25
 235 1320 l 25
 994 82 l 25
 994 1400 l 25
EndSplineSet
EndChar

StartChar: O
Encoding: 79 79 46
Width: 1229
VWidth: 1947
GlyphClass: 2
Flags: MW
LayerCount: 2
Fore
SplineSet
625 1320 m 6
 940 1320 994 1059 994 748 c 6
 994 684 l 6
 994 390 932 81 625 80 c 6
 609 80 l 6
 300 80 235 390 235 684 c 6
 235 746 l 6
 235 1060 295 1320 608 1320 c 6
 625 1320 l 6
EndSplineSet
EndChar

StartChar: P
Encoding: 80 80 47
Width: 1229
VWidth: 1947
GlyphClass: 2
Flags: MW
LayerCount: 2
Fore
SplineSet
235 687 m 25
 627 687 l 2
 872 687 994 773 994 986 c 2
 994 1060 l 2
 994 1236 885 1295 627 1295 c 2
 235 1295 l 1
 235 0 l 1
EndSplineSet
EndChar

StartChar: Q
Encoding: 81 81 48
Width: 1229
VWidth: 1947
GlyphClass: 2
Flags: MW
LayerCount: 2
Fore
SplineSet
625 1320 m 2
 940 1320 994 1059 994 748 c 2
 994 684 l 2
 994 390 932 81 625 80 c 2
 609 80 l 2
 300 80 235 390 235 684 c 2
 235 746 l 2
 235 1060 295 1320 608 1320 c 2
 625 1320 l 2
616 407 m 25
 994 -144 l 25
EndSplineSet
EndChar

StartChar: R
Encoding: 82 82 49
Width: 1229
VWidth: 1947
GlyphClass: 2
Flags: MW
LayerCount: 2
Back
SplineSet
-61 1458 m 5
 1292 1458 l 5
 1292 0 l 5
 -61 0 l 5
 -61 1458 l 5
EndSplineSet
Fore
SplineSet
1145 -102 m 25
 616 699 l 25
235 703 m 25
 627 703 l 2
 872 703 994 773 994 943 c 2
 994 1060 l 2
 994 1236 885 1295 627 1295 c 2
 235 1295 l 1
 235 0 l 1
EndSplineSet
EndChar

StartChar: S
Encoding: 83 83 50
Width: 1229
VWidth: 2334
GlyphClass: 2
Flags: W
LayerCount: 2
Fore
SplineSet
233 368 m 0
 233 225 390 80 604 80 c 10
 627 80 l 18
 837 80 994 225 994 368 c 10
 994 396 l 18
 994 493 959 602 791 665 c 2
 434 790 l 2
 365 814 300 927 300 1033 c 2
 300 1060 l 2
 300 1167 401 1320 613 1320 c 10
 622 1320 l 18
 801 1320 923 1266 972 1162 c 1
EndSplineSet
EndChar

StartChar: T
Encoding: 84 84 51
Width: 1229
VWidth: 1947
GlyphClass: 2
Flags: MW
LayerCount: 2
Fore
SplineSet
616 0 m 25
 616 1295 l 25
130 1295 m 25
 1099 1295 l 25
EndSplineSet
EndChar

StartChar: U
Encoding: 85 85 52
Width: 1229
VWidth: 1947
GlyphClass: 2
Flags: MW
LayerCount: 2
Fore
SplineSet
235 1400 m 29
 235 396 l 22
 235 228 360 80 604 80 c 14
 627 80 l 22
 872 80 994 228 994 396 c 14
 994 1400 l 29
EndSplineSet
EndChar

StartChar: V
Encoding: 86 86 53
Width: 1229
VWidth: 1708
GlyphClass: 2
Flags: MW
LayerCount: 2
Back
SplineSet
-61 -25 m 5
 -61 1400 l 5
 1292 1400 l 5
 1292 -25 l 5
 -61 -25 l 5
EndSplineSet
Fore
SplineSet
134 1516 m 25
 616 5 l 25
 1107 1536 l 25
EndSplineSet
EndChar

StartChar: W
Encoding: 87 87 54
Width: 1229
VWidth: 1947
GlyphClass: 2
Flags: MW
LayerCount: 2
Back
SplineSet
-61 1400 m 5
 421 1400 l 5
 421 1174 l 5
 818 1174 l 5
 819 1400 l 5
 1292 1400 l 5
 1292 0 l 5
 -61 0 l 5
 -61 1400 l 5
EndSplineSet
Fore
SplineSet
171 1475 m 25
 320 -1 l 25
 616 1047 l 25
 911 -1 l 25
 1062 1476 l 25
EndSplineSet
EndChar

StartChar: X
Encoding: 88 88 55
Width: 1229
VWidth: 1947
GlyphClass: 2
Flags: MW
LayerCount: 2
Back
SplineSet
-61 1400 m 5
 1292 1400 l 5
 1292 0 l 5
 -61 0 l 5
 -61 1400 l 5
EndSplineSet
Fore
SplineSet
1082 1480 m 25
 151 -80 l 25
151 1480 m 25
 1082 -80 l 25
EndSplineSet
EndChar

StartChar: Y
Encoding: 89 89 56
Width: 1229
VWidth: 1947
GlyphClass: 2
Flags: MW
LayerCount: 2
Back
SplineSet
-61 1400 m 5
 1292 1400 l 5
 1292 -25 l 5
 -61 -25 l 5
 -61 1400 l 5
EndSplineSet
Fore
SplineSet
1082 1480 m 17
 616 513 l 1
 616 -50 l 9
151 1480 m 25
 616 513 l 25
EndSplineSet
EndChar

StartChar: Z
Encoding: 90 90 57
Width: 1229
VWidth: 1947
GlyphClass: 2
Flags: MW
LayerCount: 2
Back
SplineSet
130 1425 m 1
 1099 1425 l 1
 1099 -25 l 1
 130 -25 l 1
 130 1425 l 1
EndSplineSet
Fore
SplineSet
130 1295 m 25
 1035 1295 l 25
 198 106 l 25
 1100 106 l 25
EndSplineSet
EndChar

StartChar: bracketleft
Encoding: 91 91 58
Width: 1229
VWidth: 1947
GlyphClass: 2
Flags: MW
LayerCount: 2
Fore
SplineSet
892 1480 m 17
 466 1480 l 1
 466 -80 l 25
 892 -80 l 9
EndSplineSet
EndChar

StartChar: backslash
Encoding: 92 92 59
Width: 1229
VWidth: 1708
GlyphClass: 2
Flags: MW
LayerCount: 2
Fore
SplineSet
994 -25 m 29
 235 1425 l 29
EndSplineSet
EndChar

StartChar: bracketright
Encoding: 93 93 60
Width: 1229
VWidth: 1947
GlyphClass: 2
Flags: MW
LayerCount: 2
Fore
SplineSet
310 1480 m 17
 766 1480 l 1
 766 -80 l 25
 310 -80 l 9
EndSplineSet
EndChar

StartChar: asciicircum
Encoding: 94 94 61
Width: 1229
VWidth: 1947
GlyphClass: 2
Flags: MW
LayerCount: 2
Back
SplineSet
77 1425 m 5
 1152 1425 l 5
 1152 0 l 5
 77 0 l 5
 77 1425 l 5
EndSplineSet
Fore
SplineSet
288 965 m 25
 616 1378 l 25
 944 965 l 25
EndSplineSet
EndChar

StartChar: underscore
Encoding: 95 95 62
Width: 1229
VWidth: 1947
GlyphClass: 2
Flags: MW
LayerCount: 2
Fore
SplineSet
272 -92 m 29
 959 -92 l 29
EndSplineSet
EndChar

StartChar: grave
Encoding: 96 96 63
Width: 1229
VWidth: 1708
GlyphClass: 2
Flags: MW
HStem: 1404 20G<507.5 534.5>
LayerCount: 2
Fore
SplineSet
775 1135 m 2
 784 1126 787 1116 787 1105 c 3
 787 1091 781 1079 770 1068 c 0
 759 1057 746 1052 733 1052 c 3
 722 1052 712 1056 701 1064 c 2
 476 1234 l 2
 455 1250 444 1276 444 1303 c 3
 444 1331 452 1374 467 1400 c 0
 481 1417 505 1424 528 1424 c 3
 555 1424 581 1411 598 1385 c 2
 775 1135 l 2
EndSplineSet
EndChar

StartChar: a
Encoding: 97 97 64
Width: 1229
VWidth: 1947
GlyphClass: 2
Flags: MW
LayerCount: 2
Fore
SplineSet
994 558 m 25
 604 558 l 18
 360 558 235 432 235 350 c 10
 235 296 l 18
 235 212 360 80 604 80 c 10
 627 80 l 18
 811 80 994 235 994 320 c 10
269 812 m 1
 320 896 431 944 604 944 c 10
 627 944 l 18
 872 944 994 844 994 677 c 10
 994 0 l 25
EndSplineSet
EndChar

StartChar: b
Encoding: 98 98 65
Width: 1229
VWidth: 2334
GlyphClass: 2
Flags: MW
LayerCount: 2
Fore
SplineSet
235 1400 m 25
 235 0 l 25
235 592 m 10
 235 452 l 18
 235 242 400 80 604 80 c 10
 627 80 l 18
 872 80 994 242 994 452 c 10
 994 592 l 18
 994 800 872 944 627 944 c 10
 604 944 l 18
 360 944 235 800 235 592 c 10
EndSplineSet
EndChar

StartChar: c
Encoding: 99 99 66
Width: 1229
VWidth: 2334
GlyphClass: 2
Flags: MW
LayerCount: 2
Fore
SplineSet
974 790 m 1
 931 888 815 943 627 943 c 10
 604 943 l 18
 360 943 235 800 235 592 c 10
 235 433 l 18
 235 223 400 80 604 80 c 10
 627 80 l 18
 813 80 927 144 973 239 c 1
EndSplineSet
EndChar

StartChar: d
Encoding: 100 100 67
Width: 1229
VWidth: 1947
GlyphClass: 2
Flags: MW
LayerCount: 2
Fore
SplineSet
994 1400 m 25
 994 0 l 25
235 592 m 10
 235 433 l 18
 235 223 400 80 604 80 c 10
 627 80 l 18
 872 80 994 223 994 433 c 10
 994 592 l 18
 994 800 872 944 627 944 c 10
 604 944 l 18
 360 944 235 800 235 592 c 10
EndSplineSet
EndChar

StartChar: e
Encoding: 101 101 68
Width: 1229
VWidth: 1947
GlyphClass: 2
Flags: MW
LayerCount: 2
Fore
SplineSet
235 558 m 25
 994 558 l 25
 994 649 l 18
 994 816 872 944 627 944 c 10
 604 944 l 18
 360 944 235 816 235 649 c 10
 235 378 l 18
 235 239 360 80 604 80 c 10
 627 80 l 18
 821 80 938 149 978 252 c 1
EndSplineSet
EndChar

StartChar: f
Encoding: 102 102 69
Width: 1229
VWidth: 1947
GlyphClass: 2
Flags: MW
LayerCount: 2
Fore
SplineSet
235 833 m 25
 901 833 l 25
974 1192 m 1
 940 1250 843 1320 750 1320 c 10
 726 1320 l 18
 604 1320 482 1231 482 1133 c 2
 482 0 l 9
EndSplineSet
EndChar

StartChar: g
Encoding: 103 103 70
Width: 1229
VWidth: 1947
GlyphClass: 2
Flags: MW
LayerCount: 2
Fore
SplineSet
372 451 m 1
 306 422 253 359 253 298 c 2
 253 236 l 2
 253 176 302 129 367 98 c 1
950 855 m 1
 983 898 1055 929 1125 929 c 9
627 127 m 10
 604 127 l 18
 421 127 235 21 235 -87 c 10
 235 -107 l 18
 235 -220 421 -309 604 -309 c 10
 627 -309 l 18
 811 -309 994 -220 994 -107 c 10
 994 -87 l 18
 994 4 811 127 627 127 c 10
627 944 m 10
 604 944 l 18
 421 944 235 830 235 705 c 10
 235 662 l 18
 235 532 421 400 604 400 c 10
 627 400 l 18
 811 400 994 531 994 662 c 10
 994 705 l 18
 994 830 811 944 627 944 c 10
EndSplineSet
EndChar

StartChar: h
Encoding: 104 104 71
Width: 1229
VWidth: 2334
GlyphClass: 2
Flags: MW
LayerCount: 2
Fore
SplineSet
994 0 m 25
 994 677 l 18
 994 809 872 944 627 944 c 10
 604 944 l 18
 390 944 235 716 235 592 c 10
 235 0 l 25
 235 1400 l 25
EndSplineSet
EndChar

StartChar: k
Encoding: 107 107 74
Width: 1229
VWidth: 1947
GlyphClass: 2
Flags: MW
LayerCount: 2
Back
SplineSet
-61 1425 m 5
 1292 1425 l 5
 1292 0 l 5
 -61 0 l 5
 -61 1425 l 5
EndSplineSet
Fore
SplineSet
1160 -156 m 25
 508 614 l 25
994 1060 m 25
 238 393 l 25
235 1425 m 25
 235 0 l 25
EndSplineSet
EndChar

StartChar: l
Encoding: 108 108 75
Width: 1229
VWidth: 1947
GlyphClass: 2
Flags: MW
LayerCount: 2
Fore
SplineSet
235 105 m 25
 994 105 l 25
235 1295 m 25
 616 1295 l 25
 616 105 l 25
EndSplineSet
EndChar

StartChar: m
Encoding: 109 109 76
Width: 1229
VWidth: 2334
GlyphClass: 2
Flags: MW
LayerCount: 2
Fore
SplineSet
1082 0 m 25
 1082 761 l 18
 1082 883 976 944 866 944 c 10
 852 944 l 18
 719 944 616 802 616 677 c 10
 616 0 l 25
 616 761 l 18
 616 883 544 944 433 944 c 10
 418 944 l 18
 286 944 151 802 151 677 c 10
 151 0 l 25
 151 1024 l 25
EndSplineSet
EndChar

StartChar: n
Encoding: 110 110 77
Width: 1229
VWidth: 2334
GlyphClass: 2
Flags: W
LayerCount: 2
Fore
SplineSet
994 0 m 25
 994 668 l 18
 994 834 872 944 627 944 c 10
 604 944 l 18
 390 944 235 698 235 573 c 10
 235 0 l 25
 235 1024 l 25
EndSplineSet
EndChar

StartChar: o
Encoding: 111 111 78
Width: 1229
VWidth: 1947
GlyphClass: 2
Flags: MW
LayerCount: 2
Fore
SplineSet
640 943 m 2
 889 943 994 780 994 559 c 2
 994 483 l 2
 994 256 893 80 636 80 c 2
 589 80 l 2
 338 80 235 259 235 484 c 2
 235 558 l 2
 235 779 339 943 587 943 c 2
 640 943 l 2
EndSplineSet
EndChar

StartChar: p
Encoding: 112 112 79
Width: 1229
VWidth: 1947
GlyphClass: 2
Flags: MW
LayerCount: 2
Fore
SplineSet
235 592 m 10
 235 433 l 18
 235 223 400 80 604 80 c 10
 627 80 l 18
 872 80 994 242 994 452 c 10
 994 592 l 18
 994 800 872 944 627 944 c 10
 604 944 l 18
 360 944 235 800 235 592 c 10
235 1024 m 25
 235 -385 l 25
EndSplineSet
EndChar

StartChar: q
Encoding: 113 113 80
Width: 1229
VWidth: 1947
GlyphClass: 2
Flags: MW
LayerCount: 2
Fore
SplineSet
994 1024 m 25
 994 -385 l 25
235 592 m 10
 235 443 l 18
 235 232 400 80 604 80 c 10
 627 80 l 18
 872 80 994 242 994 452 c 10
 994 592 l 18
 994 800 872 944 627 944 c 10
 604 944 l 18
 360 944 235 800 235 592 c 10
EndSplineSet
EndChar

StartChar: r
Encoding: 114 114 81
Width: 1229
VWidth: 1947
GlyphClass: 2
Flags: MW
LayerCount: 2
Fore
SplineSet
1006 840 m 1
 954 908 869 944 723 944 c 10
 700 944 l 18
 454 944 235 682 235 473 c 10
 235 0 l 25
 235 1024 l 25
EndSplineSet
EndChar

StartChar: s
Encoding: 115 115 82
Width: 1229
VWidth: 1947
GlyphClass: 2
Flags: MW
LayerCount: 2
Fore
SplineSet
969 790 m 1
 911 882 770 944 627 944 c 10
 604 944 l 18
 421 944 276 879 276 770 c 2
 276 759 l 2
 276 710 310 619 412 595 c 2
 857 479 l 2
 940 458 994 378 994 316 c 2
 994 273 l 2
 994 147 811 80 627 80 c 10
 563 80 l 18
 379 80 235 206 235 331 c 8
EndSplineSet
EndChar

StartChar: t
Encoding: 116 116 83
Width: 1229
VWidth: 1947
GlyphClass: 2
Flags: MW
LayerCount: 2
Back
SplineSet
-61 1425 m 5
 1292 1425 l 5
 1292 -84 l 5
 -61 -84 l 5
 -61 1425 l 5
EndSplineSet
Fore
SplineSet
131 904 m 25
 901 904 l 25
948 231 m 1
 918 164 840 80 723 80 c 10
 700 80 l 18
 566 80 453 188 453 314 c 2
 453 330 l 9
 540 1506 l 9
EndSplineSet
EndChar

StartChar: u
Encoding: 117 117 84
Width: 1229
VWidth: 2334
GlyphClass: 2
Flags: MW
LayerCount: 2
Fore
SplineSet
235 1024 m 25
 235 378 l 18
 235 211 332 80 576 80 c 10
 601 80 l 18
 815 80 994 355 994 480 c 10
 994 1024 l 25
 994 0 l 25
EndSplineSet
EndChar

StartChar: v
Encoding: 118 118 85
Width: 1229
VWidth: 1947
GlyphClass: 2
Flags: MW
LayerCount: 2
Back
SplineSet
-61 1024 m 5
 1292 1024 l 5
 1292 -25 l 5
 -61 -25 l 5
 -61 1024 l 5
EndSplineSet
Fore
SplineSet
71 1297 m 25
 616 80 l 25
 1160 1295 l 25
EndSplineSet
EndChar

StartChar: w
Encoding: 119 119 86
Width: 1229
VWidth: 1947
GlyphClass: 2
Flags: MW
LayerCount: 2
Back
SplineSet
-61 1024 m 5
 421 1024 l 5
 421 919 l 5
 818 919 l 5
 819 1024 l 5
 1292 1024 l 5
 1292 0 l 5
 -61 0 l 5
 -61 1024 l 5
EndSplineSet
Fore
SplineSet
156 1092 m 25
 311 79 l 25
 616 832 l 25
 921 79 l 25
 1077 1093 l 25
EndSplineSet
EndChar

StartChar: x
Encoding: 120 120 87
Width: 1229
VWidth: 1947
GlyphClass: 2
Flags: MW
LayerCount: 2
Back
SplineSet
-61 1024 m 5
 1292 1024 l 5
 1292 0 l 5
 -61 0 l 5
 -61 1024 l 5
EndSplineSet
Fore
SplineSet
1082 1091 m 25
 151 -74 l 25
151 1091 m 25
 1082 -75 l 25
EndSplineSet
EndChar

StartChar: y
Encoding: 121 121 88
Width: 1229
VWidth: 1947
GlyphClass: 2
Flags: MW
LayerCount: 2
Back
SplineSet
-61 -410 m 5
 -61 1024 l 5
 1292 1024 l 5
 1292 -410 l 5
 -61 -410 l 5
EndSplineSet
Fore
SplineSet
1160 1295 m 1
 679 -110 l 2
 644 -224 564 -294 444 -294 c 2
 417 -294 l 2
 348 -294 249 -250 198 -191 c 2
 174 -170 l 1
746 137 m 9
 71 1246 l 25
EndSplineSet
EndChar

StartChar: z
Encoding: 122 122 89
Width: 1229
VWidth: 1947
GlyphClass: 2
Flags: MW
LayerCount: 2
Back
SplineSet
129 1047 m 1
 1097 1047 l 1
 1097 -25 l 1
 129 -25 l 1
 129 1047 l 1
EndSplineSet
Fore
SplineSet
148 919 m 25
 1020 919 l 25
 174 105 l 25
 1100 105 l 25
EndSplineSet
EndChar

StartChar: braceleft
Encoding: 123 123 90
Width: 1229
VWidth: 1947
GlyphClass: 2
Flags: MW
LayerCount: 2
Fore
SplineSet
920 1480 m 21
 837 1480 l 6
 698 1480 587 1390 587 1221 c 6
 587 940 l 6
 587 838 515 717 374 717 c 6
 309 717 l 5
 374 717 l 6
 515 717 587 566 587 436 c 6
 587 183 l 6
 587 11 698 -80 837 -80 c 14
 920 -80 l 13
EndSplineSet
EndChar

StartChar: bar
Encoding: 124 124 91
Width: 1229
VWidth: 1947
GlyphClass: 2
Flags: MW
LayerCount: 2
Fore
SplineSet
615 -77 m 29
 615 1477 l 29
EndSplineSet
EndChar

StartChar: braceright
Encoding: 125 125 92
Width: 1229
VWidth: 1947
GlyphClass: 2
Flags: MW
LayerCount: 2
Fore
SplineSet
309 1480 m 17
 383 1480 l 2
 522 1480 633 1390 633 1221 c 2
 633 940 l 2
 633 838 705 717 846 717 c 2
 920 717 l 1
 846 717 l 2
 705 717 633 566 633 436 c 2
 633 183 l 2
 633 11 522 -80 383 -80 c 10
 309 -80 l 9
EndSplineSet
EndChar

StartChar: asciitilde
Encoding: 126 126 93
Width: 1229
VWidth: 1947
GlyphClass: 2
Flags: MW
LayerCount: 2
Fore
SplineSet
318 810 m 17
 346 886 427 947 464 947 c 10
 478 947 l 18
 504 947 562 933 591 907 c 2
 661 848 l 2
 686 828 728 811 753 811 c 10
 767 811 l 18
 824 811 892 865 914 947 c 9
EndSplineSet
EndChar

StartChar: cent
Encoding: 162 162 96
Width: 1229
VWidth: 2334
GlyphClass: 2
Flags: MW
LayerCount: 2
Fore
SplineSet
458 -110 m 25
 811 1167 l 25
974 808 m 1
 931 907 815 945 627 945 c 10
 604 945 l 18
 360 945 235 800 235 592 c 10
 235 433 l 18
 235 223 400 78 604 78 c 10
 627 78 l 18
 813 78 927 116 973 211 c 1
EndSplineSet
EndChar

StartChar: sterling
Encoding: 163 163 97
Width: 1229
VWidth: 1947
GlyphClass: 2
Flags: MW
LayerCount: 2
Fore
SplineSet
128 716 m 17
 884 716 l 9
935 1212 m 1
 867 1283 750 1320 627 1320 c 10
 604 1320 l 18
 360 1320 235 1221 235 1078 c 10
 235 1043 l 18
 235 972 278 890 315 839 c 2
 425 697 l 2
 462 648 482 566 482 516 c 10
 482 473 l 18
 482 320 274 144 118 89 c 2
 71 63 l 1
 118 89 l 2
 264 140 336 151 443 151 c 10
 481 151 l 18
 529 151 579 142 611 126 c 2
 658 101 l 2
 684 88 749 80 775 80 c 10
 823 80 l 18
 910 80 975 106 1032 143 c 9
EndSplineSet
EndChar

StartChar: euro
Encoding: 8364 8364 98
Width: 1229
VWidth: 1947
GlyphClass: 2
Flags: MW
LayerCount: 2
Fore
SplineSet
970 315 m 0
 919 179 852 80 680 80 c 2
 655 80 l 2
 383 80 319 244 319 377 c 2
 319 1060 l 2
 319 1147 391 1320 654 1320 c 2
 680 1320 l 2
 880 1320 947 1214 990 1070 c 0
647 534 m 25
 100 534 l 25
824 834 m 25
 148 834 l 25
EndSplineSet
EndChar

StartChar: yen
Encoding: 165 165 99
Width: 1229
VWidth: 1947
GlyphClass: 2
Flags: MW
LayerCount: 2
Back
SplineSet
0 1400 m 1
 1229 1400 l 1
 1229 -160 l 1
 0 -160 l 1
 0 1400 l 1
EndSplineSet
Fore
SplineSet
231 151 m 17
 994 151 l 9
231 392 m 17
 994 392 l 9
1082 1480 m 17
 616 513 l 1
 616 -185 l 9
151 1480 m 25
 616 513 l 25
EndSplineSet
EndChar

StartChar: section
Encoding: 167 167 101
Width: 1229
VWidth: 1947
GlyphClass: 2
Flags: MW
LayerCount: 2
Fore
SplineSet
336 111 m 1
 388 -9 515 -94 643 -94 c 10
 665 -94 l 18
 831 -94 938 35 938 175 c 10
 938 196 l 18
 938 309 792 394 627 394 c 10
 605 394 l 18
891 1290 m 1
 838 1406 714 1490 589 1490 c 10
 566 1490 l 18
 401 1490 301 1348 301 1225 c 10
 301 1204 l 18
 301 1091 440 977 605 977 c 10
 627 977 l 18
627 977 m 10
 604 977 l 18
 377 977 235 834 235 709 c 10
 235 666 l 18
 235 536 360 394 604 394 c 10
 627 394 l 18
 851 394 994 535 994 666 c 10
 994 709 l 18
 994 834 840 977 627 977 c 10
EndSplineSet
EndChar

StartChar: copyright
Encoding: 169 169 103
Width: 1229
VWidth: 1947
GlyphClass: 2
Flags: MW
LayerCount: 2
Fore
SplineSet
615 1106 m 7
 923 1106 1118 839 1118 588 c 7
 1118 345 923 100 615 100 c 7
 310 100 111 337 111 588 c 7
 111 842 315 1106 615 1106 c 7
779 437 m 5
 744 400 692 375 624 375 c 7
 485 375 411 473 411 587 c 7
 411 703 488 799 624 799 c 7
 692 799 744 776 779 739 c 5
EndSplineSet
EndChar

StartChar: ordfeminine
Encoding: 170 170 104
Width: 1229
VWidth: 1947
GlyphClass: 2
Flags: MW
LayerCount: 2
Fore
SplineSet
235 333 m 17
 994 333 l 9
866 1004 m 25
 600 1004 l 18
 433 1004 352 872 352 802 c 10
 352 766 l 18
 352 694 433 588 600 588 c 10
 617 588 l 18
 741 588 866 767 866 839 c 10
373 1243 m 1
 408 1313 482 1373 600 1373 c 10
 617 1373 l 18
 784 1373 866 1249 866 1113 c 10
 866 535 l 25
EndSplineSet
EndChar

StartChar: guillemotleft
Encoding: 171 171 105
Width: 1229
VWidth: 1947
GlyphClass: 2
Flags: MW
LayerCount: 2
Fore
SplineSet
903 151 m 29
 737 432 l 29
 737 512 l 29
 903 794 l 29
515 151 m 29
 348 432 l 29
 348 512 l 29
 515 794 l 29
EndSplineSet
EndChar

StartChar: logicalnot
Encoding: 172 172 106
Width: 1229
VWidth: 1708
GlyphClass: 2
Flags: MW
LayerCount: 2
Fore
SplineSet
234 594 m 29
 874 594 l 29
 874 235 l 29
EndSplineSet
EndChar

StartChar: softhyphen
Encoding: 173 173 107
Width: 1229
VWidth: 1947
GlyphClass: 2
Flags: MW
LayerCount: 2
Fore
SplineSet
394 594 m 29
 837 594 l 29
EndSplineSet
EndChar

StartChar: registered
Encoding: 174 174 108
Width: 1229
VWidth: 1947
GlyphClass: 2
Flags: MW
LayerCount: 2
Fore
SplineSet
785 354 m 25
 639 585 l 25
480 587 m 25
 631 587 l 2
 726 587 774 631 774 695 c 2
 774 718 l 2
 774 776 726 816 631 816 c 2
 480 816 l 1
 480 354 l 1
615 1106 m 3
 923 1106 1118 841 1118 590 c 3
 1118 347 923 100 615 100 c 3
 310 100 111 338 111 590 c 3
 111 844 315 1106 615 1106 c 3
EndSplineSet
EndChar

StartChar: degree
Encoding: 176 176 110
Width: 1229
VWidth: 1947
GlyphClass: 2
Flags: MW
LayerCount: 2
Fore
SplineSet
615 1303 m 7
 753 1303 824 1209 824 1100 c 7
 824 969 753 857 615 857 c 7
 480 857 407 962 407 1100 c 7
 407 1211 481 1303 615 1303 c 7
EndSplineSet
EndChar

StartChar: plusminus
Encoding: 177 177 111
Width: 1229
VWidth: 1947
GlyphClass: 2
Flags: MW
LayerCount: 2
Fore
SplineSet
234 183 m 25
 996 183 l 25
615 426 m 25
 615 1248 l 25
234 838 m 25
 996 838 l 25
EndSplineSet
EndChar

StartChar: twosuperior
Encoding: 178 178 112
Width: 1229
VWidth: 2334
GlyphClass: 2
Flags: MW
LayerCount: 2
Back
SplineSet
448 -25 m 5
 448 933 l 5
 402 962 l 5
 402 1479 l 5
 1069 1479 l 5
 1069 -25 l 5
 448 -25 l 5
EndSplineSet
Fore
SplineSet
467 1222 m 1
 497 1276 535 1343 635 1343 c 10
 647 1343 l 18
 763 1343 821 1286 821 1198 c 10
 821 1178 l 18
 821 1150 800 1085 762 1050 c 2
 568 834 l 2
 526 791 468 698 457 641 c 1
 880 641 l 9
EndSplineSet
EndChar

StartChar: threesuperior
Encoding: 179 179 113
Width: 1229
VWidth: 2334
GlyphClass: 2
Flags: MW
LayerCount: 2
Fore
SplineSet
456 1240 m 1
 480 1292 545 1334 610 1334 c 10
 621 1334 l 18
 703 1334 758 1270 758 1194 c 10
 758 1173 l 18
 758 1119 696 1022 615 1022 c 2
 518 1022 l 9
 621 1022 l 18
 715 1022 786 919 786 833 c 10
 786 813 l 18
 786 700 731 624 621 624 c 10
 610 624 l 18
 535 624 445 699 445 792 c 1
EndSplineSet
EndChar

StartChar: micro
Encoding: 181 181 115
Width: 1229
VWidth: 2334
GlyphClass: 2
Flags: MW
LayerCount: 2
Fore
SplineSet
150 -348 m 17
 229 -237 235 -174 235 -25 c 10
 235 1024 l 25
 235 405 l 18
 235 239 360 80 604 80 c 10
 627 80 l 18
 843 80 994 281 994 405 c 10
 994 1024 l 17
 994 128 l 2
 994 60 1003 0 1059 -40 c 9
EndSplineSet
EndChar

StartChar: paragraph
Encoding: 182 182 116
Width: 1229
VWidth: 1947
GlyphClass: 2
Flags: MW
LayerCount: 2
Fore
SplineSet
532 818 m 25
 532 1290 l 25
458 818 m 25
 458 1290 l 25
364 864 m 25
 364 1237 l 25
994 0 m 25
 994 1400 l 25
 616 1400 l 25
616 742 m 25
 519 742 l 2
 397 742 232 776 232 1055 c 2
 232 1117 l 2
 232 1284 390 1400 519 1400 c 2
 616 1400 l 1
 616 0 l 1
EndSplineSet
EndChar

StartChar: periodcentered
Encoding: 183 183 117
Width: 1229
VWidth: 1947
GlyphClass: 2
Flags: MW
LayerCount: 2
Fore
SplineSet
705 731 m 4
 705 683 668 641 615 641 c 4
 563 641 525 683 525 731 c 4
 525 779 561 821 615 821 c 4
 667 821 705 780 705 731 c 4
EndSplineSet
EndChar

StartChar: onesuperior
Encoding: 185 185 119
Width: 1229
VWidth: 1708
GlyphClass: 2
Flags: MW
LayerCount: 2
Back
SplineSet
334 834 m 5
 527 1044 l 5
 527 1165 l 5
 479 1215 l 5
 656 1425 l 5
 897 1425 l 5
 897 620 l 5
 334 620 l 5
 334 834 l 5
EndSplineSet
Fore
SplineSet
692 633 m 25
 692 1359 l 25
 373 1186 l 25
EndSplineSet
EndChar

StartChar: ordmasculine
Encoding: 186 186 120
Width: 1229
VWidth: 1947
GlyphClass: 2
Flags: MW
LayerCount: 2
Fore
SplineSet
235 333 m 17
 994 333 l 9
616 1378 m 3
 829 1378 903 1200 903 970 c 3
 903 746 818 593 616 593 c 3
 410 593 319 746 319 970 c 3
 319 1200 410 1378 616 1378 c 3
EndSplineSet
EndChar

StartChar: guillemotright
Encoding: 187 187 121
Width: 1229
VWidth: 1947
GlyphClass: 2
Flags: MW
LayerCount: 2
Fore
SplineSet
328 151 m 29
 494 432 l 29
 494 512 l 29
 328 794 l 29
716 151 m 29
 883 432 l 29
 883 512 l 29
 716 794 l 29
EndSplineSet
EndChar

StartChar: OE
Encoding: 338 338 122
Width: 1229
VWidth: 1947
GlyphClass: 2
Flags: MW
LayerCount: 2
Fore
SplineSet
1099 105 m 17
 660 105 l 1
 660 1295 l 1
 1099 1295 l 1
940 717 m 1
 659 717 l 1
235 1090 m 2
 235 1173 299 1295 441 1295 c 2
 469 1295 l 2
 595 1295 660 1177 660 1090 c 2
 660 300 l 2
 660 213 595 105 469 105 c 2
 441 105 l 2
 299 105 235 216 235 300 c 10
 235 1090 l 2
EndSplineSet
EndChar

StartChar: oe
Encoding: 339 339 123
Width: 1229
VWidth: 1947
GlyphClass: 2
Flags: MW
LayerCount: 2
Fore
SplineSet
994 268 m 3
 994 171 936 80 805 80 c 3
 680 80 616 177 616 268 c 2
 616 757 l 2
 616 845 680 944 805 944 c 3
 938 944 994 855 994 757 c 10
 994 540 l 1
 616 540 l 1
235 757 m 2
 235 853 295 944 428 944 c 3
 552 944 616 848 616 757 c 2
 616 268 l 2
 616 180 552 80 428 80 c 3
 292 80 235 171 235 268 c 10
 235 757 l 2
EndSplineSet
EndChar

StartChar: AE
Encoding: 198 198 132
Width: 1229
VWidth: 1947
GlyphClass: 2
Flags: MW
LayerCount: 2
Back
SplineSet
0 0 m 1
 0 1425 l 1
 1229 1425 l 1
 1229 0 l 1
 0 0 l 1
EndSplineSet
Fore
SplineSet
133 -90 m 17
 423 1154 l 2
 443 1239 489 1295 636 1295 c 10
 715 1295 l 25
1099 105 m 17
 715 105 l 1
 715 1295 l 1
 1099 1295 l 1
994 747 m 1
 336 747 l 1
EndSplineSet
EndChar

StartChar: Eth
Encoding: 208 208 142
Width: 1229
VWidth: 1947
GlyphClass: 2
Flags: MW
LayerCount: 2
Fore
SplineSet
80 740 m 25
 577 740 l 25
589 1295 m 2
 914 1295 992 1067 992 746 c 2
 992 687 l 2
 992 385 905 105 589 105 c 2
 319 105 l 1
 319 1295 l 1
 589 1295 l 2
EndSplineSet
EndChar

StartChar: multiply
Encoding: 215 215 149
Width: 1229
VWidth: 1708
GlyphClass: 2
Flags: MW
LayerCount: 2
Fore
SplineSet
885 324 m 29
 346 895 l 29
346 324 m 29
 885 895 l 29
EndSplineSet
EndChar

StartChar: Thorn
Encoding: 222 222 156
Width: 1229
VWidth: 1947
GlyphClass: 2
Flags: MW
LayerCount: 2
Fore
SplineSet
235 450 m 25
 627 450 l 2
 872 450 994 591 994 759 c 2
 994 883 l 6
 994 1083 885 1210 627 1210 c 2
 235 1210 l 1
235 1540 m 1
 235 0 l 1
EndSplineSet
EndChar

StartChar: germandbls
Encoding: 223 223 157
Width: 1229
VWidth: 1947
GlyphClass: 2
Flags: MW
LayerCount: 2
Fore
SplineSet
235 -388 m 1
 235 1090 l 2
 235 1249 360 1320 604 1320 c 2
 627 1320 l 2
 818 1320 927 1232 927 1087 c 2
 927 1053 l 2
 927 849 805 768 561 768 c 2
 536 768 l 25
 627 768 l 18
 872 768 994 654 994 487 c 10
 994 387 l 18
 994 218 872 80 689 80 c 2
 678 80 l 2
 604 80 549 91 497 126 c 1
EndSplineSet
EndChar

StartChar: ae
Encoding: 230 230 164
Width: 1229
VWidth: 1947
GlyphClass: 2
Flags: MW
LayerCount: 2
Fore
SplineSet
1035 268 m 3
 1035 171 946 80 814 80 c 3
 689 80 616 177 616 268 c 2
 616 757 l 2
 616 846 689 944 814 944 c 3
 949 944 1035 855 1035 757 c 10
 1035 540 l 1
 424 540 l 2
 282 540 198 438 198 341 c 2
 198 268 l 18
 198 171 282 80 418 80 c 3
 542 80 616 180 616 268 c 2
 616 757 l 2
 616 848 542 944 418 944 c 3
 286 944 198 854 198 757 c 0
EndSplineSet
EndChar

StartChar: eth
Encoding: 240 240 174
Width: 1229
VWidth: 1947
GlyphClass: 2
Flags: W
VStem: 182 558<220.939 427 497 723.211>
LayerCount: 2
Fore
SplineSet
238 1092 m 25
 994 1320 l 25
994 466 m 25
 994 613 l 18
 994 882 653 1230 360 1432 c 9
235 480 m 10
 235 452 l 18
 235 242 400 80 604 80 c 10
 627 80 l 18
 872 80 994 242 994 452 c 10
 994 480 l 18
 994 647 872 826 627 826 c 10
 604 826 l 18
 360 826 235 656 235 480 c 10
EndSplineSet
EndChar

StartChar: divide
Encoding: 247 247 181
Width: 1229
VWidth: 1947
GlyphClass: 2
Flags: MW
LayerCount: 2
Fore
SplineSet
730 930 m 3xe0
 730 865 676 820 615 820 c 3
 555 820 500 866 500 930 c 3
 500 1022 550 1073 615 1073 c 3
 675 1073 730 1030 730 930 c 3xe0
730 261 m 3xe0
 730 197 676 151 615 151 c 3
 555 151 500 198 500 261 c 3
 500 319 550 371 615 371 c 3
 675 371 730 326 730 261 c 3xe0
234 594 m 25
 996 594 l 25
EndSplineSet
EndChar

StartChar: oslash
Encoding: 248 248 182
Width: 1229
VWidth: 1947
GlyphClass: 2
Flags: MW
LayerCount: 2
Fore
SplineSet
640 943 m 2
 889 943 972 780 972 559 c 2
 972 473 l 2
 972 246 893 80 636 80 c 2
 589 80 l 2
 338 80 261 250 261 474 c 2
 261 558 l 2
 261 779 339 943 587 943 c 2
 640 943 l 2
231 -48 m 25
 996 1059 l 25
EndSplineSet
EndChar

StartChar: thorn
Encoding: 254 254 188
Width: 1229
VWidth: 1947
GlyphClass: 2
Flags: MW
LayerCount: 2
Fore
SplineSet
235 -387 m 25
 235 1400 l 25
636 944 m 2
 898 944 994 767 994 532 c 2
 994 495 l 2
 994 259 898 80 630 80 c 2
 603 80 l 2
 378 80 235 219 235 393 c 2
 235 618 l 2
 235 788 378 944 598 944 c 2
 636 944 l 2
EndSplineSet
EndChar

StartChar: minus
Encoding: 8722 8722 190
Width: 1229
VWidth: 1708
GlyphClass: 2
Flags: MW
LayerCount: 2
Fore
SplineSet
235 594 m 25
 994 594 l 25
EndSplineSet
EndChar

StartChar: quoteleft
Encoding: 8216 8216 192
Width: 1229
VWidth: 1947
GlyphClass: 2
Flags: W
HStem: 1371 55<566.409 601.285>
VStem: 349 194<1000.19 1103.37>
LayerCount: 2
Fore
SplineSet
505 1077 m 17
 506 1195 537 1400 750 1426 c 9
 763 1353 l 17
 714 1322 618 1264 618 1203 c 3
 618 1185 627 1166 650 1147 c 9
 505 1077 l 17
505 1077 m 3
 505 1124 542 1165 596 1165 c 3
 647 1165 686 1125 686 1077 c 3
 686 1031 650 959 596 959 c 3
 543 959 505 1030 505 1077 c 3
EndSplineSet
EndChar

StartChar: gravemodifier
Encoding: 715 715 193
Width: 1229
VWidth: 2334
GlyphClass: 2
Flags: MW
LayerCount: 2
Fore
SplineSet
552 1647 m 29
 735 1438 l 29
EndSplineSet
EndChar

StartChar: acute
Encoding: 180 180 194
Width: 1229
VWidth: 1947
GlyphClass: 2
Flags: MW
LayerCount: 2
Fore
SplineSet
708 1587 m 29
 524 1280 l 29
EndSplineSet
EndChar

StartChar: circumflex
Encoding: 710 710 195
Width: 1229
VWidth: 1947
GlyphClass: 2
Flags: MW
LayerCount: 2
Back
SplineSet
162 717 m 5
 162 1638 l 5
 1069 1638 l 5
 1069 717 l 5
 162 717 l 5
EndSplineSet
Fore
SplineSet
381 1460 m 25
 616 1600 l 25
 851 1460 l 25
EndSplineSet
EndChar

StartChar: tilde
Encoding: 732 732 196
Width: 1229
VWidth: 1947
GlyphClass: 2
Flags: MW
LayerCount: 2
Fore
SplineSet
357 1502 m 21
 373 1528 l 6
 401 1574 457 1612 489 1612 c 14
 504 1612 l 22
 536 1612 586 1595 606 1576 c 6
 624 1559 l 6
 644 1539 694 1522 726 1522 c 14
 742 1522 l 22
 772 1522 833 1557 861 1608 c 6
 874 1632 l 13
EndSplineSet
EndChar

StartChar: macronmodifier
Encoding: 713 713 197
Width: 1229
VWidth: 1947
GlyphClass: 2
Flags: MW
LayerCount: 2
Fore
SplineSet
824 1538 m 5
 406 1538 l 5
EndSplineSet
EndChar

StartChar: breve
Encoding: 728 728 198
Width: 1229
VWidth: 1947
GlyphClass: 2
Flags: MW
LayerCount: 2
Fore
SplineSet
830 1593 m 4
 775 1523 699 1480 614 1480 c 7
 529 1480 455 1523 401 1592 c 4
EndSplineSet
EndChar

StartChar: dotaccent
Encoding: 729 729 199
Width: 1229
VWidth: 1947
GlyphClass: 2
Flags: W
HStem: 1437 180<533.688 687.766>
VStem: 521 180<1449.96 1604.04>
LayerCount: 2
Fore
SplineSet
529 1527 m 31
 529 1577 565 1617 611 1617 c 31
 657 1617 695 1577 695 1527 c 31
 695 1477 657 1437 611 1437 c 31
 565 1437 529 1477 529 1527 c 31
EndSplineSet
EndChar

StartChar: dieresis
Encoding: 168 168 200
Width: 1229
VWidth: 1947
GlyphClass: 2
Flags: W
HStem: 1455 176<325.117 471.475 758.683 904.135>
VStem: 313 171<1466.61 1620.09> 747 169<1466.82 1619.9>
LayerCount: 2
Fore
SplineSet
494 1544 m 0
 494 1497 458 1455 416 1455 c 0
 373 1455 336 1494 336 1544 c 0
 336 1596 375 1631 415 1631 c 0
 460 1631 494 1590 494 1544 c 0
894 1544 m 0
 894 1492 856 1455 816 1455 c 0
 775 1455 738 1495 738 1544 c 0
 738 1594 775 1631 816 1631 c 0
 854 1631 894 1596 894 1544 c 0
EndSplineSet
EndChar

StartChar: ring
Encoding: 730 730 202
Width: 1229
VWidth: 1947
GlyphClass: 2
Flags: MW
LayerCount: 2
Fore
SplineSet
421 1425 m 31
 421 1537 503 1627 606 1627 c 31
 710 1627 795 1537 795 1425 c 31
 795 1284 710 1203 606 1203 c 31
 503 1203 421 1284 421 1425 c 31
523 1425 m 31
 523 1359 560 1303 607 1303 c 31
 654 1303 693 1359 693 1425 c 31
 693 1476 654 1517 607 1517 c 31
 560 1517 523 1476 523 1425 c 31
EndSplineSet
EndChar

StartChar: cedilla
Encoding: 184 184 203
Width: 1229
VWidth: 1947
GlyphClass: 2
Flags: MW
LayerCount: 2
Fore
SplineSet
650 28 m 21
 650 0 l 5
 641 -132 l 5
 772 -132 824 -191 824 -270 c 7
 824 -354 737 -411 652 -411 c 31
 575 -411 515 -379 467 -334 c 13
EndSplineSet
EndChar

StartChar: ogonek
Encoding: 731 731 204
Width: 1229
VWidth: 1947
GlyphClass: 2
Flags: MW
LayerCount: 2
Fore
SplineSet
750 -290 m 5
 726 -314 l 6
 704 -333 677 -345 648 -345 c 15
 582 -345 529 -287 529 -216 c 23
 529 -181 542 -149 563 -126 c 14
 679 0 l 29
 679 102 l 29
EndSplineSet
EndChar

StartChar: caron
Encoding: 711 711 205
Width: 1229
VWidth: 1947
GlyphClass: 2
Flags: MW
LayerCount: 2
Back
SplineSet
162 1422 m 5
 162 1736 l 5
 1069 1736 l 5
 1069 1422 l 5
 162 1422 l 5
EndSplineSet
Fore
SplineSet
381 1600 m 25
 616 1460 l 25
 851 1600 l 25
EndSplineSet
EndChar

StartChar: dotlessi
Encoding: 305 305 206
Width: 1229
VWidth: 1947
GlyphClass: 2
Flags: W
LayerCount: 2
Fore
SplineSet
235 105 m 25
 994 105 l 25
235 919 m 25
 616 919 l 25
 616 105 l 25
EndSplineSet
EndChar

StartChar: currency
Encoding: 164 164 210
Width: 1229
VWidth: 1947
GlyphClass: 2
Flags: MW
LayerCount: 2
Fore
SplineSet
1019 353 m 17
 838 554 l 1
392 995 m 1
 211 1204 l 9
211 353 m 17
 393 555 l 1
838 995 m 1
 1019 1204 l 9
624 1100 m 18
 768 1100 910 944 910 780 c 10
 910 751 l 18
 910 572 768 466 624 466 c 10
 606 466 l 18
 462 466 320 583 320 751 c 10
 320 780 l 18
 320 944 462 1100 606 1100 c 10
 624 1100 l 18
EndSplineSet
EndChar

StartChar: brokenbar
Encoding: 166 166 211
Width: 1229
VWidth: 1947
GlyphClass: 2
Flags: MW
LayerCount: 2
Fore
SplineSet
615 -77 m 21
 615 594 l 5
615 810 m 5
 615 1477 l 13
EndSplineSet
EndChar

StartChar: onequarter
Encoding: 188 188 212
Width: 1229
VWidth: 1708
GlyphClass: 2
Flags: MW
LayerCount: 2
Back
SplineSet
273 628 m 17
 -286 740 l 1
 -286 913 l 1
 96 1153 l 1
 93 1269 l 1
 31 1376 l 1
 256 1569 l 1
 614 1569 l 1
 615 1183 l 17
 935 1668 l 9
 1357 1473 l 17
 801 571 l 1
 1238 571 l 1
 1238 -209 l 1
 637 -209 l 1
 637 291 l 9
 375 -207 l 25
 -106 -69 l 25
 273 628 l 17
EndSplineSet
Fore
SplineSet
994 -209 m 29
 994 525 l 29
 648 68 l 29
 1187 68 l 29
283 783 m 25
 283 1504 l 25
 -144 1290 l 25
235 -25 m 25
 994 1425 l 25
EndSplineSet
EndChar

StartChar: onehalf
Encoding: 189 189 213
Width: 1229
VWidth: 1708
GlyphClass: 2
Flags: MW
LayerCount: 2
Back
SplineSet
94 1153 m 1
 93 1269 l 1
 31 1376 l 1
 256 1569 l 1
 614 1569 l 1
 615 1183 l 17
 904 1662 l 1
 1327 1521 l 1
 802 612 l 1
 1582 612 l 1
 1582 -345 l 1
 677 -345 l 5
 677 145 l 5
 333 -279 l 1
 -167 -84 l 1
 259 592 l 1
 -286 740 l 1
 -286 913 l 1
 94 1153 l 1
EndSplineSet
Fore
SplineSet
711 382 m 1
 747 438 790 476 905 476 c 10
 919 476 l 18
 1088 476 1160 430 1160 338 c 10
 1160 318 l 18
 1160 288 1132 223 1086 185 c 2
 805 -49 l 2
 749 -97 724 -153 703 -210 c 1
 1185 -210 l 9
283 783 m 25
 283 1504 l 25
 -144 1290 l 25
235 -25 m 25
 994 1425 l 25
EndSplineSet
EndChar

StartChar: threequarters
Encoding: 190 190 214
Width: 1229
VWidth: 1708
GlyphClass: 2
Flags: MW
LayerCount: 2
Back
SplineSet
407 -177 m 5
 -68 -174 l 5
 -68 1674 l 5
 928 1674 l 5
 1297 1458 l 5
 862 571 l 5
 1238 571 l 5
 1238 -209 l 5
 637 -209 l 5
 637 297 l 5
 407 -177 l 5
EndSplineSet
Fore
SplineSet
994 -209 m 25
 994 525 l 25
 648 68 l 25
 1187 68 l 25
85 1432 m 1
 120 1491 222 1529 310 1529 c 10
 325 1529 l 18
 434 1529 487 1450 487 1343 c 10
 487 1387 l 18
 487 1285 443 1232 335 1232 c 2
 195 1232 l 9
 344 1232 l 18
 488 1232 524 1190 524 1080 c 10
 524 1070 l 18
 524 923 469 840 325 840 c 10
 310 840 l 18
 201 840 69 898 69 1026 c 1
235 -25 m 25
 994 1425 l 25
EndSplineSet
EndChar

StartChar: Lslash
Encoding: 321 321 216
Width: 1229
VWidth: 1947
GlyphClass: 2
Flags: MW
LayerCount: 2
Fore
SplineSet
80 512 m 25
 861 715 l 25
313 1400 m 25
 313 106 l 25
 1099 106 l 25
EndSplineSet
EndChar

StartChar: lslash
Encoding: 322 322 257
Width: 1229
VWidth: 1947
GlyphClass: 2
Flags: MW
LayerCount: 2
Fore
SplineSet
235 105 m 29
 994 105 l 29
616 122 m 21
235 1295 m 29
 616 1295 l 29
 616 105 l 29
193 512 m 29
 1042 715 l 29
EndSplineSet
EndChar

StartChar: dotlessj
Encoding: 567 567 260
Width: 1229
VWidth: 1947
GlyphClass: 2
Flags: MW
LayerCount: 2
Fore
SplineSet
406 -70 m 3
 406 -167 515 -294 636 -294 c 27
 758 -294 869 -189 869 -69 c 2
 869 919 l 25
 371 919 l 25
EndSplineSet
EndChar

StartChar: eng
Encoding: 331 331 261
Width: 1229
VWidth: 2334
GlyphClass: 2
Flags: MW
LayerCount: 2
Fore
SplineSet
439 -188 m 1
 486 -231 558 -294 635 -294 c 10
 704 -294 l 18
 886 -294 994 -130 994 18 c 10
 994 668 l 18
 994 834 872 944 627 944 c 10
 604 944 l 18
 390 944 235 679 235 554 c 10
 235 0 l 25
 235 1024 l 25
EndSplineSet
EndChar

StartChar: ellipsis
Encoding: 8230 8230 266
Width: 1229
VWidth: 1947
GlyphClass: 2
Flags: MW
LayerCount: 2
Fore
SplineSet
1099 141 m 3
 1099 101 1054 53 992 53 c 3
 953 53 922 100 922 141 c 3
 922 180 952 216 992 216 c 3
 1055 216 1099 177 1099 141 c 3
307 141 m 3
 307 101 278 53 236 53 c 3
 176 53 130 100 130 141 c 3
 130 180 174 216 236 216 c 3
 278 216 307 177 307 141 c 3
687 141 m 3
 687 101 656 53 615 53 c 3
 577 53 546 100 546 141 c 3
 546 180 576 216 615 216 c 3
 657 216 687 177 687 141 c 3
EndSplineSet
EndChar

StartChar: uparrow
Encoding: 8593 8593 267
Width: 1229
VWidth: 1708
GlyphClass: 2
Flags: W
LayerCount: 2
Fore
SplineSet
1076 -99 m 5
 154 -99 l 5
 154 1044 l 5
 1076 1044 l 5
 1076 -99 l 5
975 620 m 29
 615 991 l 29
 255 620 l 29
615 991 m 29
 615 177 l 29
EndSplineSet
EndChar

StartChar: downarrow
Encoding: 8595 8595 268
Width: 1229
VWidth: 1708
GlyphClass: 2
Flags: W
LayerCount: 2
Fore
SplineSet
1076 124 m 1
 154 124 l 1
 154 1331 l 1
 1076 1331 l 1
 1076 124 l 1
975 580 m 25
 615 177 l 25
 255 580 l 25
615 177 m 25
 615 991 l 25
EndSplineSet
EndChar

StartChar: spaceopenbox
Encoding: 9251 9251 269
Width: 1229
VWidth: 1708
GlyphClass: 2
Flags: MW
LayerCount: 2
Fore
SplineSet
994 151 m 25
 994 -92 l 25
 235 -92 l 25
 235 151 l 25
EndSplineSet
EndChar

StartChar: foursuperior
Encoding: 8308 8308 271
Width: 1229
VWidth: 1947
GlyphClass: 2
Flags: MW
LayerCount: 2
Back
SplineSet
235 1425 m 1
 994 1425 l 1
 994 542 l 1
 235 542 l 1
 235 1425 l 1
EndSplineSet
Fore
SplineSet
806 542 m 25
 806 1402 l 25
 278 817 l 25
 1215 817 l 25
EndSplineSet
EndChar

StartChar: Eng
Encoding: 330 330 273
Width: 1229
VWidth: 2334
GlyphClass: 2
Flags: MW
LayerCount: 2
Fore
SplineSet
439 -188 m 1
 474 -246 558 -294 635 -294 c 10
 704 -294 l 18
 886 -294 994 -130 994 18 c 10
 994 1023 l 18
 994 1185 872 1320 627 1320 c 10
 604 1320 l 18
 390 1320 235 1050 235 890 c 10
 235 0 l 25
 235 1400 l 25
EndSplineSet
EndChar

StartChar: dcroat
Encoding: 273 273 274
Width: 1229
VWidth: 1947
GlyphClass: 2
Flags: W
LayerCount: 2
Fore
SplineSet
571 1210 m 25
 1161 1210 l 25
938 1400 m 25
 938 0 l 25
235 592 m 10
 235 433 l 18
 235 223 372 80 577 80 c 10
 600 80 l 18
 844 80 938 223 938 433 c 10
 938 592 l 18
 938 800 844 944 600 944 c 10
 577 944 l 18
 332 944 235 800 235 592 c 10
EndSplineSet
EndChar

StartChar: bullet
Encoding: 8226 8226 280
Width: 1229
VWidth: 1947
GlyphClass: 2
Flags: W
HStem: 516 303<516.141 711.916>
VStem: 469 291<564.375 772.875>
LayerCount: 2
Fore
SplineSet
750 659 m 3
 750 589 689 516 615 516 c 3
 540 516 480 591 480 659 c 3
 480 730 543 798 615 798 c 3
 686 798 750 730 750 659 c 3
EndSplineSet
EndChar

StartChar: florin
Encoding: 402 402 281
Width: 1229
VWidth: 1947
GlyphClass: 2
Flags: MW
LayerCount: 2
Fore
SplineSet
1035 1228 m 1
 982 1285 945 1320 855 1320 c 11
 746 1320 671 1248 662 1121 c 10
 579 -77 l 18
 570 -212 491 -311 377 -311 c 3
 302 -311 221 -252 195 -170 c 1
304 806 m 25
 994 806 l 25
EndSplineSet
EndChar

StartChar: dagger
Encoding: 8224 8224 282
Width: 1229
VWidth: 1947
GlyphClass: 2
Flags: MW
LayerCount: 2
Fore
SplineSet
615 1425 m 17
 615 -386 l 9
71 919 m 25
 1160 919 l 25
EndSplineSet
EndChar

StartChar: daggerdbl
Encoding: 8225 8225 283
Width: 1229
VWidth: 1947
GlyphClass: 2
Flags: MW
LayerCount: 2
Fore
SplineSet
71 119 m 25
 1160 119 l 25
615 1425 m 25
 615 -386 l 25
71 919 m 25
 1160 919 l 25
EndSplineSet
EndChar

StartChar: trademark
Encoding: 8482 8482 284
Width: 1229
VWidth: 1947
GlyphClass: 2
Flags: MW
LayerCount: 2
Back
SplineSet
70 466 m 1
 70 1400 l 1
 1159 1400 l 1
 1159 466 l 1
 909 466 l 1
 909 519 l 1
 719 519 l 1
 719 466 l 1
 70 466 l 1
EndSplineSet
Fore
SplineSet
595 411 m 25
 595 1401 l 25
 815 615 l 25
 1034 1401 l 25
 1034 411 l 25
300 463 m 25
 300 1295 l 25
-14 1295 m 25
 591 1295 l 25
EndSplineSet
EndChar

StartChar: Ecyrillic
Encoding: 1028 1028 290
Width: 1229
VWidth: 1947
GlyphClass: 2
Flags: W
LayerCount: 2
Fore
SplineSet
942 315 m 4
 892 179 797 81 625 80 c 6
 609 80 l 6
 300 80 235 390 235 684 c 6
 235 746 l 6
 235 1060 295 1320 608 1320 c 6
 625 1320 l 6
 825 1320 919 1214 962 1070 c 4
245 740 m 25
 669 739 l 25
EndSplineSet
EndChar

StartChar: Becyrillic
Encoding: 1041 1041 298
Width: 1229
VWidth: 1947
GlyphClass: 2
Flags: MW
LayerCount: 2
Fore
SplineSet
235 768 m 25
 590 768 l 2
 835 768 994 656 994 487 c 2
 994 396 l 2
 994 230 848 105 590 105 c 2
 235 105 l 1
 235 1295 l 9
 994 1295 l 25
EndSplineSet
EndChar

StartChar: Gecyrillic
Encoding: 1043 1043 299
Width: 1229
VWidth: 1947
GlyphClass: 2
Flags: MW
LayerCount: 2
Fore
SplineSet
235 0 m 25
 235 1295 l 25
 1099 1295 l 25
EndSplineSet
EndChar

StartChar: Decyrillic
Encoding: 1044 1044 300
Width: 1229
VWidth: 1947
GlyphClass: 2
Flags: MW
LayerCount: 2
Back
SplineSet
0 1425 m 1
 1229 1425 l 1
 1229 146 l 1
 1026 -190 l 1
 205 -190 l 1
 0 146 l 1
 0 1425 l 1
EndSplineSet
Fore
SplineSet
187 -162 m 17
 187 106 l 9
 1043 106 l 17
 1043 -162 l 9
287 106 m 17
 480 936 l 2
 505 1073 636 1295 808 1295 c 10
 930 1295 l 17
 930 106 l 9
EndSplineSet
EndChar

StartChar: Zhecyrillic
Encoding: 1046 1046 302
Width: 1229
VWidth: 1947
GlyphClass: 2
Flags: MW
LayerCount: 2
Back
SplineSet
0 1400 m 1
 1229 1400 l 1
 1229 0 l 1
 0 0 l 1
 0 1400 l 1
EndSplineSet
Fore
SplineSet
1130 -85 m 25
 805 685 l 25
101 -85 m 25
 426 685 l 25
101 1500 m 25
 616 236 l 25
 1130 1500 l 25
616 1320 m 25
 616 -140 l 25
EndSplineSet
EndChar

StartChar: Zecyrillic
Encoding: 1047 1047 303
Width: 1229
VWidth: 1947
GlyphClass: 2
Flags: MW
LayerCount: 2
Fore
SplineSet
261 1174 m 1
 315 1269 433 1320 576 1320 c 10
 627 1320 l 18
 811 1320 933 1235 933 1096 c 10
 933 1059 l 18
 933 890 783 789 603 789 c 2
 400 789 l 9
 627 789 l 18
 872 789 994 660 994 452 c 10
 994 433 l 18
 994 229 872 80 627 80 c 10
 576 80 l 18
 410 80 235 181 235 350 c 1
EndSplineSet
EndChar

StartChar: Iicyrillic
Encoding: 1048 1048 304
Width: 1229
VWidth: 1947
GlyphClass: 2
Flags: MW
LayerCount: 2
Back
SplineSet
0 1400 m 1
 1229 1400 l 1
 1229 0 l 1
 0 0 l 1
 0 1400 l 1
EndSplineSet
Fore
SplineSet
994 0 m 25
 994 1320 l 25
 235 79 l 25
 235 1400 l 25
EndSplineSet
EndChar

StartChar: Elcyrillic
Encoding: 1051 1051 307
Width: 1229
VWidth: 1947
GlyphClass: 2
Flags: MW
LayerCount: 2
Back
SplineSet
0 1425 m 1
 1229 1425 l 1
 1229 0 l 1
 0 0 l 1
 0 1425 l 1
EndSplineSet
Fore
SplineSet
119 -99 m 16
 458 936 l 2
 501 1099 642 1252 808 1295 c 9
 994 1295 l 25
 994 0 l 25
EndSplineSet
EndChar

StartChar: Pecyrillic
Encoding: 1055 1055 311
Width: 1229
VWidth: 1947
GlyphClass: 2
Flags: MW
LayerCount: 2
Fore
SplineSet
235 0 m 25
 235 1295 l 25
 994 1295 l 25
 994 0 l 25
EndSplineSet
EndChar

StartChar: Ucyrillic
Encoding: 1059 1059 315
Width: 1229
VWidth: 1947
GlyphClass: 2
Flags: MW
LayerCount: 2
Back
SplineSet
0 1400 m 1
 1229 1400 l 5
 1229 -40 l 5
 0 -40 l 1
 0 1400 l 1
EndSplineSet
Fore
SplineSet
1082 1480 m 16
 622 235 l 2
 574 102 487 81 397 80 c 2
 360 80 l 2
 337 80 291 90 277 101 c 2
 235 132 l 9
151 1480 m 25
 702 463 l 25
EndSplineSet
EndChar

StartChar: Efcyrillic
Encoding: 1060 1060 316
Width: 1229
VWidth: 1947
GlyphClass: 2
Flags: W
LayerCount: 2
Fore
SplineSet
737 1230 m 2
 854 1230 994 1031 994 766 c 2
 994 713 l 2
 994 469 879 231 737 231 c 2
 497 231 l 2
 355 231 235 469 235 713 c 2
 235 765 l 2
 235 1032 357 1230 495 1230 c 2
 737 1230 l 2
616 1425 m 25
 616 -25 l 25
EndSplineSet
EndChar

StartChar: Tsecyrillic
Encoding: 1062 1062 318
Width: 1229
VWidth: 1947
GlyphClass: 2
Flags: MW
LayerCount: 2
Back
SplineSet
0 1400 m 1
 1129 1400 l 1
 1129 -302 l 1
 0 -302 l 1
 0 1400 l 1
EndSplineSet
Fore
SplineSet
899 105 m 17
 1068 105 l 9
 916 -189 l 25
235 1400 m 25
 235 105 l 25
 900 105 l 17
 900 1400 l 9
EndSplineSet
EndChar

StartChar: Checyrillic
Encoding: 1063 1063 319
Width: 1229
VWidth: 1947
GlyphClass: 2
Flags: MW
LayerCount: 2
Fore
SplineSet
994 512 m 25
 604 512 l 2
 360 512 235 672 235 840 c 2
 235 1400 l 17
994 1400 m 1
 994 0 l 1
EndSplineSet
EndChar

StartChar: Shacyrillic
Encoding: 1064 1064 320
Width: 1229
VWidth: 1947
GlyphClass: 2
Flags: MW
LayerCount: 2
Fore
SplineSet
616 1169 m 17
 616 105 l 9
235 1400 m 25
 235 105 l 25
 994 105 l 25
 994 1400 l 25
EndSplineSet
EndChar

StartChar: Shchacyrillic
Encoding: 1065 1065 321
Width: 1229
VWidth: 1947
GlyphClass: 2
Flags: MW
LayerCount: 2
Back
SplineSet
0 1400 m 1
 1179 1400 l 5
 1179 -302 l 5
 0 -302 l 1
 0 1400 l 1
EndSplineSet
Fore
SplineSet
616 1169 m 17
 616 105 l 9
992 105 m 25
 1143 105 l 25
 960 -189 l 25
235 1400 m 25
 235 105 l 25
 994 105 l 17
 994 1400 l 9
EndSplineSet
EndChar

StartChar: Hardsigncyrillic
Encoding: 1066 1066 322
Width: 1229
VWidth: 1947
GlyphClass: 2
Flags: W
HStem: 1405 20G<60 922>
VStem: 0 922<-60 680>
LayerCount: 2
Back
SplineSet
81 1425 m 1
 1229 1425 l 1
 1229 -60 l 1
 0 -60 l 1
 0 699 l 1
 236 700 l 1
 236 929 l 1
 81 929 l 1
 81 1425 l 1
EndSplineSet
Fore
SplineSet
413 731 m 25
 691 731 l 2
 853 731 994 646 994 478 c 2
 994 378 l 2
 994 211 853 105 691 105 c 2
 413 105 l 1
 413 1295 l 9
 235 1295 l 25
 21 870 l 25
EndSplineSet
EndChar

StartChar: Yericyrillic
Encoding: 1067 1067 323
Width: 1229
VWidth: 1947
GlyphClass: 2
Flags: MW
LayerCount: 2
Fore
SplineSet
994 1400 m 17
 994 0 l 9
235 778 m 25
 346 778 l 2
 590 778 714 665 714 497 c 2
 714 415 l 2
 714 248 603 105 346 105 c 2
 235 105 l 1
 235 1400 l 1
EndSplineSet
EndChar

StartChar: Softsigncyrillic
Encoding: 1068 1068 324
Width: 1229
VWidth: 1947
GlyphClass: 2
Flags: MW
LayerCount: 2
Fore
SplineSet
235 731 m 25
 627 731 l 2
 872 731 994 619 994 450 c 2
 994 387 l 2
 994 220 885 105 627 105 c 2
 235 105 l 1
 235 1400 l 1
EndSplineSet
EndChar

StartChar: Ereversedcyrillic
Encoding: 1069 1069 325
Width: 1229
VWidth: 1947
GlyphClass: 2
Flags: MW
LayerCount: 2
Fore
SplineSet
269 1067 m 0
 312 1213 408 1320 608 1320 c 2
 625 1320 l 2
 940 1320 994 1059 994 748 c 2
 994 684 l 2
 994 390 932 81 625 80 c 2
 609 80 l 2
 430 80 333 185 284 329 c 0
564 740 m 25
 987 739 l 25
EndSplineSet
EndChar

StartChar: IUcyrillic
Encoding: 1070 1070 326
Width: 1229
VWidth: 1947
GlyphClass: 2
Flags: MW
LayerCount: 2
Fore
SplineSet
241 687 m 25
 468 687 l 25
235 1400 m 17
 235 0 l 9
747 1320 m 2
 928 1320 994 1069 994 744 c 2
 994 698 l 2
 994 402 935 80 752 80 c 2
 728 80 l 2
 549 80 488 411 488 693 c 2
 488 740 l 2
 488 1065 550 1320 734 1320 c 2
 747 1320 l 2
EndSplineSet
EndChar

StartChar: IAcyrillic
Encoding: 1071 1071 327
Width: 1229
VWidth: 1947
GlyphClass: 2
Flags: MW
LayerCount: 2
Back
SplineSet
0 1458 m 1
 1229 1458 l 1
 1229 0 l 1
 0 0 l 1
 0 1458 l 1
EndSplineSet
Fore
SplineSet
86 -102 m 25
 616 652 l 25
994 657 m 25
 604 657 l 2
 360 657 235 754 235 923 c 2
 235 1042 l 2
 235 1218 347 1295 604 1295 c 2
 994 1295 l 1
 994 0 l 1
EndSplineSet
EndChar

StartChar: becyrillic
Encoding: 1073 1073 329
Width: 1229
VWidth: 2334
GlyphClass: 2
Flags: HMWO
LayerCount: 2
Fore
SplineSet
994 1380 m 21
 885 1308 776 1295 615 1295 c 7
 427 1295 235 1203 235 923 c 6
 235 520 l 13
235 592 m 14
 235 452 l 22
 235 242 400 80 604 80 c 14
 627 80 l 22
 872 80 994 242 994 452 c 14
 994 592 l 22
 994 800 872 944 627 944 c 14
 604 944 l 22
 360 944 235 800 235 592 c 14
EndSplineSet
EndChar

StartChar: vecyrillic
Encoding: 1074 1074 330
Width: 1229
VWidth: 2334
GlyphClass: 2
Flags: MW
LayerCount: 2
Fore
SplineSet
235 105 m 17
 629 105 l 18
 872 105 994 209 994 335 c 10
 994 343 l 18
 994 467 871 547 627 547 c 2
 235 547 l 1
 556 547 l 2
 800 547 923 647 923 754 c 3
 923 861 800 919 556 919 c 2
 235 919 l 9
 235 105 l 17
EndSplineSet
EndChar

StartChar: gecyrillic
Encoding: 1075 1075 331
Width: 1229
VWidth: 1947
GlyphClass: 2
Flags: MW
LayerCount: 2
Fore
SplineSet
264 790 m 1
 321 882 422 944 563 944 c 10
 643 944 l 18
 862 944 954 885 954 761 c 2
 954 750 l 2
 954 670 911 613 838 595 c 2
 369 478 l 2
 292 459 235 393 235 331 c 2
 235 288 l 2
 235 156 380 80 563 80 c 10
 674 80 l 18
 860 80 994 225 994 350 c 8
EndSplineSet
EndChar

StartChar: decyrillic
Encoding: 1076 1076 332
Width: 1229
VWidth: 1947
GlyphClass: 2
Flags: MW
LayerCount: 2
Back
SplineSet
0 1047 m 1
 1229 1047 l 1
 1229 258 l 1
 993 -190 l 1
 235 -190 l 1
 0 258 l 1
 0 1047 l 1
EndSplineSet
Fore
SplineSet
235 -162 m 17
 235 106 l 9
 994 106 l 17
 994 -162 l 9
343 106 m 17
 455 599 l 2
 483 717 626 919 808 919 c 10
 893 919 l 17
 893 106 l 9
EndSplineSet
EndChar

StartChar: zhecyrillic
Encoding: 1078 1078 334
Width: 1229
VWidth: 1947
GlyphClass: 2
Flags: MW
LayerCount: 2
Back
SplineSet
0 1400 m 1
 1229 1400 l 1
 1229 0 l 1
 0 0 l 1
 0 1400 l 1
EndSplineSet
Fore
SplineSet
1098 -142 m 25
 764 496 l 25
131 -142 m 25
 461 496 l 25
231 1025 m 25
 616 175 l 25
 994 1025 l 25
616 1024 m 25
 616 -154 l 25
EndSplineSet
EndChar

StartChar: zecyrillic
Encoding: 1079 1079 335
Width: 1229
VWidth: 1947
GlyphClass: 2
Flags: MW
LayerCount: 2
Fore
SplineSet
262 793 m 1
 316 891 415 945 557 945 c 10
 674 945 l 18
 857 945 933 853 933 769 c 10
 933 759 l 18
 933 656 848 557 667 557 c 2
 482 557 l 9
 683 557 l 18
 927 557 994 455 994 347 c 10
 994 328 l 18
 994 223 927 80 683 80 c 10
 567 80 l 18
 402 80 255 162 235 292 c 1
EndSplineSet
EndChar

StartChar: iicyrillic
Encoding: 1080 1080 336
Width: 1229
VWidth: 1947
GlyphClass: 2
Flags: MW
LayerCount: 2
Back
SplineSet
0 1023 m 1
 1229 1023 l 1
 1229 0 l 1
 0 0 l 1
 0 1023 l 1
EndSplineSet
Fore
SplineSet
994 0 m 25
 994 943 l 25
 235 79 l 25
 235 1023 l 25
EndSplineSet
EndChar

StartChar: kacyrillic
Encoding: 1082 1082 338
Width: 1229
VWidth: 1947
GlyphClass: 2
Flags: MW
LayerCount: 2
Back
SplineSet
0 1295 m 1
 1229 1295 l 1
 1229 0 l 1
 0 0 l 1
 0 1295 l 1
EndSplineSet
Fore
SplineSet
1163 -125 m 25
 529 462 l 25
994 953 m 25
 235 153 l 25
235 1023 m 25
 235 -25 l 25
EndSplineSet
EndChar

StartChar: elcyrillic
Encoding: 1083 1083 339
Width: 1229
VWidth: 1947
GlyphClass: 2
Flags: MW
LayerCount: 2
Back
SplineSet
0 1047 m 1
 1229 1047 l 1
 1229 0 l 1
 0 0 l 1
 0 1047 l 1
EndSplineSet
Fore
SplineSet
119 -99 m 16
 405 598 l 2
 447 729 636 918 808 918 c 10
 994 918 l 25
 994 0 l 25
EndSplineSet
EndChar

StartChar: emcyrillic
Encoding: 1084 1084 340
Width: 1229
VWidth: 1947
GlyphClass: 2
Flags: MW
LayerCount: 2
Back
SplineSet
0 1 m 1
 0 1025 l 1
 1229 1025 l 1
 1229 1 l 1
 819 1 l 1
 818 106 l 1
 421 106 l 1
 421 1 l 1
 0 1 l 1
EndSplineSet
Fore
SplineSet
187 -74 m 25
 323 1026 l 25
 616 148 l 25
 899 1026 l 25
 1043 -75 l 25
EndSplineSet
EndChar

StartChar: encyrillic
Encoding: 1085 1085 341
Width: 1229
VWidth: 1947
GlyphClass: 2
Flags: MW
LayerCount: 2
Fore
SplineSet
235 473 m 25
 994 473 l 25
994 1023 m 25
 994 0 l 25
235 1023 m 25
 235 0 l 25
EndSplineSet
EndChar

StartChar: tecyrillic
Encoding: 1090 1090 346
Width: 1229
VWidth: 1947
GlyphClass: 2
Flags: MW
LayerCount: 2
Fore
SplineSet
616 0 m 25
 616 919 l 25
130 919 m 25
 1099 919 l 25
EndSplineSet
EndChar

StartChar: efcyrillic
Encoding: 1092 1092 348
Width: 1229
VWidth: 1947
GlyphClass: 2
Flags: MW
LayerCount: 2
Fore
SplineSet
708 867 m 2
 994 867 1103 709 1103 510 c 2
 1103 452 l 2
 1103 247 994 80 704 80 c 2
 519 80 l 2
 235 80 128 251 128 453 c 2
 128 510 l 2
 128 707 235 867 517 867 c 2
 708 867 l 2
616 1047 m 25
 616 -386 l 25
EndSplineSet
EndChar

StartChar: tsecyrillic
Encoding: 1094 1094 350
Width: 1229
VWidth: 2334
GlyphClass: 2
Flags: MW
LayerCount: 2
Fore
SplineSet
235 1024 m 25
 235 387 l 18
 235 220 332 80 576 80 c 10
 601 80 l 18
 815 80 994 365 994 489 c 10
 994 1024 l 25
 994 221 l 21
 1071 161 1086 88 1086 -6 c 7
 1086 -64 973 -188 886 -228 c 13
EndSplineSet
EndChar

StartChar: checyrillic
Encoding: 1095 1095 351
Width: 1229
VWidth: 1947
GlyphClass: 2
Flags: MW
LayerCount: 2
Fore
SplineSet
235 1024 m 25
 235 714 l 18
 235 548 332 405 576 405 c 10
 647 405 l 18
 861 405 994 692 994 817 c 10
 994 1024 l 25
 994 0 l 17
EndSplineSet
EndChar

StartChar: shacyrillic
Encoding: 1096 1096 352
Width: 1229
VWidth: 2334
GlyphClass: 2
Flags: MW
LayerCount: 2
Fore
SplineSet
235 1024 m 25
 235 264 l 18
 235 153 307 80 392 80 c 10
 406 80 l 18
 507 80 616 253 616 378 c 10
 616 1024 l 25
 616 264 l 18
 616 170 674 80 772 80 c 10
 786 80 l 18
 896 80 994 253 994 378 c 10
 994 1024 l 25
 994 0 l 25
EndSplineSet
EndChar

StartChar: shchacyrillic
Encoding: 1097 1097 353
Width: 1229
VWidth: 2334
GlyphClass: 2
Flags: MW
LayerCount: 2
Fore
SplineSet
235 1024 m 25
 235 264 l 18
 235 153 307 80 392 80 c 10
 406 80 l 18
 507 80 616 253 616 378 c 10
 616 1024 l 25
 616 264 l 18
 616 170 674 80 772 80 c 10
 786 80 l 18
 896 80 994 253 994 378 c 10
 994 1024 l 25
 994 221 l 17
 1071 161 1086 88 1086 -6 c 3
 1086 -64 973 -188 886 -228 c 9
EndSplineSet
EndChar

StartChar: hardsigncyrillic
Encoding: 1098 1098 354
Width: 1229
VWidth: 1947
GlyphClass: 2
Flags: MW
LayerCount: 2
Back
SplineSet
87 1023 m 5
 1229 1023 l 1
 1229 -60 l 1
 0 -60 l 5
 0 265 l 5
 236 267 l 5
 236 568 l 5
 87 568 l 5
 87 1023 l 5
EndSplineSet
Fore
SplineSet
422 563 m 25
 664 563 l 18
 847 563 994 492 994 368 c 2
 994 324 l 2
 994 198 848 105 664 105 c 10
 422 105 l 25
 422 918 l 25
 236 918 l 25
 22 466 l 25
EndSplineSet
EndChar

StartChar: yericyrillic
Encoding: 1099 1099 355
Width: 1229
VWidth: 1947
GlyphClass: 2
Flags: MW
LayerCount: 2
Fore
SplineSet
994 0 m 25
 994 1023 l 25
235 1023 m 25
 235 105 l 25
 419 105 l 18
 603 105 758 198 758 324 c 2
 758 359 l 2
 758 483 617 558 419 558 c 10
 235 558 l 25
EndSplineSet
EndChar

StartChar: softsigncyrillic
Encoding: 1100 1100 356
Width: 1229
VWidth: 1947
GlyphClass: 2
Flags: MW
LayerCount: 2
Fore
SplineSet
235 1047 m 25
 235 105 l 25
 627 105 l 18
 811 105 994 198 994 324 c 2
 994 359 l 2
 994 483 825 558 627 558 c 10
 235 558 l 25
EndSplineSet
EndChar

StartChar: ereversedcyrillic
Encoding: 1101 1101 357
Width: 1229
VWidth: 1947
GlyphClass: 2
Flags: MW
LayerCount: 2
Fore
SplineSet
421 512 m 25
 973 512 l 25
245 780 m 1
 289 879 396 943 583 943 c 10
 654 943 l 18
 849 943 974 800 974 592 c 10
 974 452 l 18
 974 242 818 80 654 80 c 10
 583 80 l 18
 399 80 295 144 248 239 c 1
EndSplineSet
EndChar

StartChar: iucyrillic
Encoding: 1102 1102 358
Width: 1229
VWidth: 1947
GlyphClass: 2
Flags: W
HStem: 50 923<600.62 892.008>
VStem: 469 555<212.969 810.98>
LayerCount: 2
Fore
SplineSet
747 944 m 2
 928 944 994 739 994 532 c 2
 994 499 l 2
 994 319 935 80 752 80 c 2
 728 80 l 2
 549 80 488 317 488 496 c 2
 488 529 l 2
 488 736 550 944 734 944 c 2
 747 944 l 2
241 512 m 25
 480 512 l 25
235 1023 m 25
 235 0 l 25
EndSplineSet
EndChar

StartChar: iacyrillic
Encoding: 1103 1103 359
Width: 1229
VWidth: 1947
GlyphClass: 2
Flags: W
LayerCount: 2
Fore
SplineSet
196 28 m 25
 630 473 l 25
994 0 m 25
 994 918 l 25
 586 918 l 18
 403 918 235 854 235 728 c 2
 235 681 l 2
 235 558 342 473 586 473 c 10
 994 473 l 25
EndSplineSet
EndChar

StartChar: ecyrillic
Encoding: 1108 1108 362
Width: 1229
VWidth: 1947
GlyphClass: 2
Flags: W
LayerCount: 2
Fore
SplineSet
813 512 m 25
 260 512 l 25
997 780 m 1
 953 879 837 943 650 943 c 10
 589 943 l 18
 363 943 259 781 259 573 c 10
 259 461 l 18
 259 271 355 80 589 80 c 10
 650 80 l 18
 835 80 948 144 994 239 c 1
EndSplineSet
EndChar

StartChar: numero
Encoding: 8470 8470 372
Width: 1229
VWidth: 1947
Flags: MW
LayerCount: 2
Back
SplineSet
0 1400 m 5
 1229 1400 l 5
 1229 0 l 5
 0 0 l 5
 0 1400 l 5
EndSplineSet
Fore
SplineSet
944 1257 m 3
 1034.05 1257 1085 1123 1085 919 c 3
 1085 713 1034.02 546 944 546 c 3
 857.977 546 803 713 803 919 c 3
 803 1123 865.482 1257 944 1257 c 3
155 0 m 25
 155 1405 l 25
 566 -5 l 25
 566 1400 l 25
EndSplineSet
EndChar

StartChar: caroncomb
Encoding: 780 780 377
Width: 1229
VWidth: 1947
Flags: MW
LayerCount: 2
Back
SplineSet
162 1422 m 5
 162 1736 l 5
 1069 1736 l 5
 1069 1422 l 5
 162 1422 l 5
EndSplineSet
Fore
SplineSet
381 1600 m 25
 616 1460 l 25
 851 1600 l 25
EndSplineSet
EndChar

StartChar: gravecomb
Encoding: 768 768 379
Width: 1229
VWidth: 2334
Flags: MW
LayerCount: 2
Fore
SplineSet
552 1647 m 29
 735 1438 l 29
EndSplineSet
EndChar

StartChar: acutecomb
Encoding: 769 769 380
Width: 1229
VWidth: 2334
Flags: MW
LayerCount: 2
Fore
SplineSet
679 1647 m 29
 496 1438 l 29
EndSplineSet
EndChar

StartChar: tildecomb
Encoding: 771 771 381
Width: 1229
VWidth: 1947
Flags: MW
LayerCount: 2
Fore
SplineSet
357 1502 m 17
 373 1528 l 2
 401 1574 457 1612 489 1612 c 10
 504 1612 l 18
 536 1612 586 1595 606 1576 c 2
 624 1559 l 2
 644 1539 694 1522 726 1522 c 10
 742 1522 l 18
 772 1522 833 1557 861 1608 c 2
 874 1632 l 9
EndSplineSet
EndChar

StartChar: hookabovecomb
Encoding: 777 777 382
Width: 1229
VWidth: 1947
Flags: MW
LayerCount: 2
Fore
SplineSet
622 1232 m 5
 622 1381 l 5
 752 1381 805 1416 805 1495 c 7
 805 1579 711 1606 633 1606 c 31
 558 1606 504 1590 447 1549 c 13
EndSplineSet
EndChar

StartChar: dotbelowcomb
Encoding: 803 803 383
Width: 1229
VWidth: 2334
Flags: MW
LayerCount: 2
Fore
SplineSet
533 -253 m 27
 533 -203 569 -163 615 -163 c 27
 662 -163 700 -203 700 -253 c 27
 700 -303 662 -343 615 -343 c 27
 569 -343 533 -303 533 -253 c 27
EndSplineSet
EndChar

StartChar: commaturnedabovecmb
Encoding: 786 786 396
Width: 1229
VWidth: 1947
Flags: MW
LayerCount: 2
Fore
SplineSet
650 28 m 21
 650 0 l 5
 641 -132 l 5
 772 -132 824 -191 824 -270 c 7
 824 -354 737 -411 652 -411 c 31
 575 -411 515 -379 467 -334 c 13
EndSplineSet
EndChar

StartChar: Hbar
Encoding: 294 294 400
Width: 1229
VWidth: 1947
Flags: W
LayerCount: 2
Fore
SplineSet
80 1156 m 25
 1149 1156 l 25
317 717 m 25
 913 717 l 25
913 1400 m 25
 913 0 l 25
317 1400 m 25
 317 0 l 25
EndSplineSet
EndChar

StartChar: hbar
Encoding: 295 295 401
Width: 1229
VWidth: 1947
Flags: W
LayerCount: 2
Fore
SplineSet
80 1255 m 25
 660 1255 l 25
994 0 m 25
 994 668 l 18
 994 834 862 944 664 944 c 10
 641 944 l 18
 427 944 310 679 310 554 c 10
 310 0 l 25
 310 1400 l 25
EndSplineSet
EndChar

StartChar: IJ
Encoding: 306 306 410
Width: 1229
VWidth: 1947
Flags: W
LayerCount: 2
Fore
SplineSet
576 350 m 9
 679 350 l 18
 765 350 838 432 838 592 c 10
 838 1295 l 25
80 105 m 25
 735 105 l 25
80 1295 m 25
 1149 1295 l 1
393 1296 m 1
 393 105 l 9
EndSplineSet
EndChar

StartChar: Tbar
Encoding: 358 358 430
Width: 1229
VWidth: 1947
Flags: W
LayerCount: 2
Fore
SplineSet
130 557 m 25
 1099 557 l 25
616 0 m 25
 616 1295 l 25
130 1295 m 25
 1099 1295 l 25
EndSplineSet
EndChar

StartChar: tbar
Encoding: 359 359 431
Width: 1229
VWidth: 1947
Flags: W
HStem: -19 209<493.818 713.488> 522 130<73.8504 844.924> 839 182<76 251 473 761>
VStem: 74 771<522 652> 228 216<235.871 833.119> 251 215<420.546 839> 285 214<1094 1308>
DStem2: 265 1021 473 1021 0.0695178 0.997581<14.4597 287.696>
LayerCount: 2
Back
SplineSet
0 1425 m 1
 1229 1425 l 1
 1229 -84 l 1
 0 -84 l 1
 0 1425 l 1
EndSplineSet
Fore
SplineSet
170 904 m 25
 910 904 l 25
948 236 m 1
 929 160 815 80 723 80 c 10
 700 80 l 18
 578 80 454 188 454 315 c 2
 454 339 l 9
 540 1506 l 9
130 557 m 25
 1099 557 l 25
EndSplineSet
EndChar

StartChar: A
Encoding: 65 65 461
Width: 1229
VWidth: 1708
Flags: MW
LayerCount: 2
Back
SplineSet
-61 0 m 5
 -61 1425 l 5
 1292 1425 l 5
 1292 0 l 5
 -61 0 l 5
EndSplineSet
Fore
SplineSet
308 338 m 25
 923 338 l 25
187 -25 m 25
 616 1327 l 25
 1046 -25 l 25
EndSplineSet
EndChar

StartChar: Lambda
Encoding: 923 923 462
Width: 1229
VWidth: 1708
Flags: MW
LayerCount: 2
Back
SplineSet
0 0 m 1
 0 1425 l 1
 1229 1425 l 1
 1229 0 l 1
 0 0 l 1
EndSplineSet
Fore
SplineSet
187 -25 m 25
 616 1362 l 25
 1046 -25 l 25
EndSplineSet
EndChar

StartChar: Delta
Encoding: 916 916 463
Width: 1229
VWidth: 1708
Flags: MW
LayerCount: 2
Back
SplineSet
0 0 m 1
 0 1425 l 1
 1229 1425 l 1
 1229 0 l 1
 0 0 l 1
EndSplineSet
Fore
SplineSet
994 106 m 9
 616 1362 l 17
 235 105 l 1
 994 106 l 9
EndSplineSet
EndChar

StartChar: Theta
Encoding: 920 920 464
Width: 1229
VWidth: 1947
Flags: MW
LayerCount: 2
Fore
SplineSet
625 1320 m 2
 876 1320 994 1059 994 748 c 2
 994 684 l 2
 994 390 893 80 625 80 c 2
 609 80 l 2
 341 80 235 390 235 684 c 2
 235 746 l 2
 235 1060 346 1320 608 1320 c 2
 625 1320 l 2
504 687 m 17
 591 687 641 687 728 687 c 9
EndSplineSet
EndChar

StartChar: Xi
Encoding: 926 926 465
Width: 1229
VWidth: 1708
Flags: W
LayerCount: 2
Fore
SplineSet
235 350 m 29
 235 105 l 29
 994 105 l 29
 994 350 l 29
442 687 m 29
 791 687 l 29
235 1047 m 29
 235 1295 l 29
 994 1295 l 29
 994 1047 l 29
EndSplineSet
EndChar

StartChar: Sigma
Encoding: 931 931 468
Width: 1229
VWidth: 1947
Flags: MW
LayerCount: 2
Back
SplineSet
130 1425 m 1
 1099 1425 l 5
 1099 -25 l 5
 130 -25 l 1
 130 1425 l 1
EndSplineSet
Fore
SplineSet
1160 80 m 1
 176 80 l 1
 645 719 l 1
 176 1295 l 1
 1160 1295 l 1
EndSplineSet
EndChar

StartChar: Psi
Encoding: 936 936 473
Width: 1229
VWidth: 1947
Flags: MW
LayerCount: 2
Fore
SplineSet
1037 1320 m 25
 1037 760 l 18
 1037 636 922 512 773 512 c 10
 460 512 l 18
 326 512 196 628 196 760 c 10
 196 1320 l 25
616 1425 m 25
 616 -24 l 25
EndSplineSet
EndChar

StartChar: Omega
Encoding: 937 937 474
Width: 1229
VWidth: 1947
Flags: MW
LayerCount: 2
Fore
SplineSet
130 105 m 1
 457 105 l 0
 457 337 l 1
 299 396 234 606 234 787 c 2
 234 838 l 2
 234 1100 349 1321 608 1321 c 2
 625 1321 l 2
 879 1321 994 1099 994 840 c 2
 994 787 l 2
 994 606 926 385 773 337 c 1
 773 105 l 1
 1099 105 l 25
EndSplineSet
EndChar

StartChar: alpha
Encoding: 945 945 483
Width: 1229
VWidth: 1947
Flags: MW
LayerCount: 2
Fore
SplineSet
1031 1024 m 1
 738 260 l 2
 708 179 652 80 523 80 c 2
 505 80 l 2
 365 80 235 259 235 497 c 2
 235 528 l 2
 235 764 365 944 505 944 c 2
 523 944 l 2
 669 944 709 843 738 764 c 2
 1035 0 l 17
EndSplineSet
EndChar

StartChar: beta
Encoding: 946 946 484
Width: 1229
VWidth: 2334
Flags: MW
LayerCount: 2
Fore
SplineSet
235 -321 m 25
 235 621 l 18
 235 788 362 944 606 944 c 10
 629 944 l 18
 869 944 949 857 949 753 c 2
 949 740 l 2
 949 632 851 547 620 547 c 2
 481 547 l 1
 664 547 l 2
 908 547 994 462 994 338 c 10
 994 314 l 18
 994 189 890 80 648 80 c 10
 597 80 l 18
 353 80 235 226 235 352 c 10
EndSplineSet
EndChar

StartChar: gamma
Encoding: 947 947 485
Width: 1229
VWidth: 2334
Flags: MW
LayerCount: 2
Back
SplineSet
-61 1024 m 1
 1292 1024 l 1
 1292 -386 l 1
 -61 -386 l 1
 -61 1024 l 1
EndSplineSet
Fore
SplineSet
615 -386 m 25
 615 80 l 25
187 1099 m 25
 615 80 l 25
 1043 1098 l 25
EndSplineSet
EndChar

StartChar: delta
Encoding: 948 948 486
Width: 1229
VWidth: 2334
Flags: MW
LayerCount: 2
Back
SplineSet
165 1455 m 1
 1229 1455 l 1
 1229 -51 l 1
 0 -51 l 1
 0 1091 l 1
 165 1091 l 1
 165 1455 l 1
EndSplineSet
Fore
SplineSet
994 1295 m 25
 196 1295 l 25
 837 885 l 25
235 554 m 10
 235 480 l 18
 235 270 400 80 604 80 c 10
 627 80 l 18
 872 80 994 270 994 480 c 10
 994 554 l 18
 994 763 872 944 627 944 c 10
 604 944 l 18
 360 944 235 763 235 554 c 10
EndSplineSet
EndChar

StartChar: epsilon
Encoding: 949 949 487
Width: 1229
VWidth: 2334
Flags: W
LayerCount: 2
Fore
SplineSet
957 855 m 1
 909 901 801 944 656 944 c 10
 558 944 l 18
 314 944 235 873 235 747 c 3
 235 646 306 532 563 532 c 10
 834 532 l 25
 563 532 l 18
 306 532 235 405 235 325 c 10
 235 310 l 18
 235 176 314 80 558 80 c 10
 656 80 l 18
 811 80 892 125 954 179 c 1
EndSplineSet
EndChar

StartChar: zeta
Encoding: 950 950 488
Width: 1229
VWidth: 2334
Flags: MW
LayerCount: 2
Back
SplineSet
0 1385 m 1
 1098 1385 l 1
 1098 512 l 1
 1229 512 l 1
 1229 -411 l 1
 0 -411 l 1
 0 1385 l 1
EndSplineSet
Fore
SplineSet
495 1047 m 17
 537 1024 l 2
 649 927 831 919 965 919 c 2
 1037 919 l 1
 1002 895 l 2
 941 826 828 765 748 735 c 2
 475 635 l 2
 353 591 235 471 235 368 c 10
 235 350 l 18
 235 181 314 80 558 80 c 10
 711 80 l 18
 909 80 994 5 994 -94 c 2
 994 -116 l 2
 994 -230 873 -294 728 -294 c 2
 616 -294 l 9
EndSplineSet
EndChar

StartChar: eta
Encoding: 951 951 489
Width: 1229
VWidth: 2334
Flags: MW
LayerCount: 2
Fore
SplineSet
994 -387 m 29
 994 705 l 22
 994 872 872 944 627 944 c 14
 604 944 l 22
 390 944 235 716 235 592 c 14
 235 513 l 29
235 1024 m 29
 235 0 l 29
EndSplineSet
EndChar

StartChar: theta
Encoding: 952 952 490
Width: 1229
VWidth: 1947
Flags: MW
LayerCount: 2
Fore
SplineSet
640 943 m 2
 868 943 994 780 994 559 c 2
 994 473 l 2
 994 246 871 80 636 80 c 2
 589 80 l 2
 366 80 235 250 235 474 c 2
 235 558 l 2
 235 779 371 943 587 943 c 2
 640 943 l 2
236 512 m 17
 365 512 861 512 989 512 c 9
EndSplineSet
EndChar

StartChar: lambda
Encoding: 955 955 491
Width: 1229
VWidth: 2334
Flags: MW
LayerCount: 2
Back
SplineSet
-61 0 m 5
 -61 1410 l 5
 1292 1410 l 5
 1292 0 l 5
 -61 0 l 5
EndSplineSet
Fore
SplineSet
408 1527 m 25
 616 945 l 25
202 -62 m 25
 616 945 l 25
 1021 -45 l 25
EndSplineSet
EndChar

StartChar: xi
Encoding: 958 958 494
Width: 1229
VWidth: 2334
Flags: MW
LayerCount: 2
Back
SplineSet
0 1425 m 1
 857 1425 l 1
 857 784 l 1
 1229 784 l 1
 1229 -410 l 1
 0 -410 l 1
 0 1425 l 1
EndSplineSet
Fore
SplineSet
468 1231 m 17
 487 1203 l 2
 518 1157 638 1100 794 1078 c 2
 832 1073 l 1
 800 1053 l 2
 768 1034 698 997 626 973 c 2
 485 936 l 2
 368 913 236 863 236 740 c 2
 236 715 l 2
 236 618 367 513 609 513 c 10
 870 513 l 25
 609 513 l 18
 352 513 235 415 235 303 c 10
 235 287 l 18
 235 147 332 80 558 80 c 10
 711 80 l 18
 909 80 994 5 994 -94 c 2
 994 -116 l 2
 994 -230 873 -294 728 -294 c 2
 616 -294 l 9
EndSplineSet
EndChar

StartChar: pi
Encoding: 960 960 496
Width: 1229
VWidth: 2334
Flags: MW
LayerCount: 2
Back
SplineSet
72 1320 m 1
 1158 1320 l 1
 1158 0 l 1
 72 0 l 1
 72 1320 l 1
EndSplineSet
Fore
SplineSet
-46 766 m 17
 18 834 161 919 387 919 c 2
 845 919 l 2
 1082 919 1229 1038 1277 1113 c 9
895 919 m 25
 895 248 l 18
 895 105 1099 -96 1222 -142 c 9
5 -142 m 17
 174 -93 314 105 314 248 c 10
 314 910 l 25
EndSplineSet
EndChar

StartChar: rho
Encoding: 961 961 497
Width: 1229
VWidth: 2334
Flags: MW
LayerCount: 2
Fore
SplineSet
235 -386 m 25
 235 514 l 25
994 461 m 10
 994 592 l 18
 994 802 832 944 627 944 c 10
 604 944 l 18
 360 944 235 802 235 592 c 10
 235 461 l 18
 235 253 360 80 604 80 c 10
 627 80 l 18
 872 80 994 253 994 461 c 10
EndSplineSet
EndChar

StartChar: sigmafinal
Encoding: 962 962 498
Width: 1229
VWidth: 2334
Flags: MW
LayerCount: 2
Fore
SplineSet
1031 838 m 9
 964 874 l 18
 918 903 811 943 742 943 c 2
 678 943 l 2
 417 943 235 757 235 564 c 10
 235 471 l 18
 235 229 374 80 558 80 c 10
 711 80 l 18
 909 80 994 5 994 -94 c 2
 994 -116 l 2
 994 -230 873 -294 728 -294 c 2
 616 -294 l 9
EndSplineSet
EndChar

StartChar: sigma
Encoding: 963 963 499
Width: 1229
VWidth: 1947
Flags: MW
LayerCount: 2
Fore
SplineSet
638 943 m 2
 854 943 994 780 994 559 c 2
 994 492 l 2
 994 265 854 80 635 80 c 2
 587 80 l 2
 369 80 235 269 235 493 c 2
 235 558 l 2
 235 779 369 943 585 943 c 2
 638 943 l 2
1149 904 m 25
 808 903 l 25
EndSplineSet
EndChar

StartChar: tau
Encoding: 964 964 500
Width: 1229
VWidth: 2334
Flags: MW
LayerCount: 2
Back
SplineSet
130 1320 m 1
 1099 1320 l 1
 1099 -25 l 5
 130 -25 l 5
 130 1320 l 1
EndSplineSet
Fore
SplineSet
-46 682 m 17
 27 767 274 919 433 919 c 2
 789 919 l 2
 960 919 1229 1161 1277 1230 c 9
249 -142 m 17
 377 -138 616 148 616 369 c 2
 616 919 l 9
EndSplineSet
EndChar

StartChar: upsilon
Encoding: 965 965 501
Width: 1229
VWidth: 1947
Flags: MW
LayerCount: 2
Fore
SplineSet
547 945 m 0
 665 945 l 2
 901 945 994 771 994 559 c 2
 994 478 l 2
 994 255 840 80 630 80 c 2
 602 80 l 2
 331 80 235 290 235 513 c 2
 235 1023 l 1
EndSplineSet
EndChar

StartChar: phi
Encoding: 966 966 502
Width: 1229
VWidth: 1947
Flags: W
LayerCount: 2
Fore
SplineSet
616 -386 m 1
 616 719 l 2
 616 855 682 944 768 944 c 2
 791 944 l 2
 912 944 994 767 994 553 c 2
 994 505 l 2
 993 284 901 80 652 80 c 2
 581 80 l 2
 317 80 235 285 235 501 c 2
 235 943 l 1
EndSplineSet
EndChar

StartChar: chi
Encoding: 967 967 503
Width: 1229
VWidth: 2062
Flags: MW
LayerCount: 2
Back
SplineSet
-61 1023 m 5
 1292 1023 l 5
 1292 -387 l 5
 -61 -387 l 5
 -61 1023 l 5
EndSplineSet
Fore
SplineSet
1196 1298 m 25
 28 -690 l 17
-158 1250 m 1
 -88 1242 47 1165 115 1099 c 2
 309 915 l 2
 386 848 474 696 523 558 c 2
 657 181 l 2
 718 -28 818 -240 912 -319 c 2
 1115 -456 l 2
 1138 -473 1254 -517 1339 -543 c 9
EndSplineSet
EndChar

StartChar: psi
Encoding: 968 968 504
Width: 1229
VWidth: 1947
Flags: MW
LayerCount: 2
Fore
SplineSet
616 -386 m 1
 616 1047 l 17
994 943 m 0
 994 513 l 2
 994 332 879 80 723 80 c 2
 506 80 l 2
 349 80 235 333 235 513 c 2
 235 943 l 1
EndSplineSet
EndChar

StartChar: omega
Encoding: 969 969 505
Width: 1229
VWidth: 2334
Flags: MW
LayerCount: 2
Back
SplineSet
-1 -114 m 1
 -1 1024 l 1
 1229 1024 l 1
 1229 -114 l 1
 -1 -114 l 1
EndSplineSet
Fore
SplineSet
449 1152 m 17
 305 945 l 2
 272 903 235 794 235 719 c 10
 235 349 l 18
 235 220 305 80 409 80 c 10
 430 80 l 18
 563 80 616 170 616 292 c 10
 616 717 l 25
 616 292 l 18
 616 170 681 80 792 80 c 10
 817 80 l 18
 951 80 994 220 994 350 c 10
 994 719 l 18
 994 795 972 895 924 948 c 2
 764 1151 l 9
EndSplineSet
EndChar

StartChar: dieresiscmb
Encoding: 776 776 508
Width: 1229
VWidth: 1947
Flags: MW
LayerCount: 2
Fore
SplineSet
520 1380 m 3
 520 1309 484 1269 442 1269 c 3
 399 1269 362 1306 362 1380 c 3
 362 1438 401 1472 441 1472 c 3
 486 1472 520 1432 520 1380 c 3
859 1380 m 3
 859 1304 821 1269 781 1269 c 3
 739 1269 702 1307 702 1380 c 3
 702 1436 739 1472 781 1472 c 3
 819 1472 859 1438 859 1380 c 3
EndSplineSet
EndChar

StartChar: Djecyrillic
Encoding: 1026 1026 512
Width: 1229
VWidth: 2334
Flags: MW
LayerCount: 2
Fore
SplineSet
713 105 m 25
 812 105 l 18
 966 105 993 293 993 395 c 2
 993 640 l 2
 993 768 911 877 777 877 c 10
 752 877 l 18
 650 877 464 709 464 424 c 10
 464 0 l 25
 464 1295 l 25
130 1295 m 25
 1099 1295 l 25
EndSplineSet
EndChar

StartChar: Ljecyrillic
Encoding: 1033 1033 513
Width: 1229
VWidth: 1947
Flags: MW
LayerCount: 2
Back
SplineSet
-61 1425 m 5
 1292 1425 l 5
 1292 -100 l 5
 392 -100 l 5
 392 0 l 5
 -61 0 l 5
 -61 1425 l 5
EndSplineSet
Fore
SplineSet
156 -126 m 25
 329 1071 l 18
 345 1193 402 1295 489 1295 c 10
 615 1295 l 1
 615 105 l 1
 732 105 l 2
 893 105 994 212 994 424 c 2
 994 497 l 2
 994 665 904 778 732 778 c 2
 615 778 l 25
EndSplineSet
EndChar

StartChar: Njecyrillic
Encoding: 1034 1034 514
Width: 1229
VWidth: 1947
Flags: MW
LayerCount: 2
Fore
SplineSet
235 1400 m 25
 235 0 l 25
241 778 m 25
 741 778 l 2
 923 778 994 665 994 497 c 2
 994 424 l 2
 994 258 915 105 740 105 c 2
 615 105 l 1
 615 1400 l 1
EndSplineSet
EndChar

StartChar: Tshecyrillic
Encoding: 1035 1035 515
Width: 1229
VWidth: 2334
Flags: MW
LayerCount: 2
Fore
SplineSet
994 0 m 25
 994 724 l 18
 994 852 898 944 763 944 c 10
 738 944 l 18
 636 944 441 813 441 499 c 10
 441 0 l 25
 441 1295 l 25
130 1295 m 25
 1099 1295 l 25
EndSplineSet
EndChar

StartChar: Dzhecyrillic
Encoding: 1039 1039 516
Width: 1229
VWidth: 2334
Flags: MW
LayerCount: 2
Fore
SplineSet
616 106 m 25
 616 -386 l 25
235 1400 m 25
 235 105 l 25
 994 105 l 17
 994 1400 l 9
EndSplineSet
EndChar

StartChar: djecyrillic
Encoding: 1106 1106 517
Width: 1229
VWidth: 2334
Flags: MW
LayerCount: 2
Fore
SplineSet
130 1169 m 25
 811 1169 l 25
439 -228 m 1
 486 -271 558 -294 635 -294 c 10
 704 -294 l 18
 886 -294 994 -110 994 53 c 10
 994 513 l 18
 994 680 940 832 696 832 c 10
 652 832 l 18
 439 832 323 554 323 430 c 10
 323 0 l 25
 323 1424 l 25
EndSplineSet
EndChar

StartChar: dzhecyrillic
Encoding: 1119 1119 519
Width: 1229
VWidth: 2334
Flags: MW
LayerCount: 2
Fore
SplineSet
616 -386 m 25
 616 106 l 25
235 1023 m 25
 235 106 l 25
 994 106 l 25
 994 1023 l 25
EndSplineSet
EndChar

StartChar: ljecyrillic
Encoding: 1113 1113 520
Width: 1229
VWidth: 1947
Flags: MW
LayerCount: 2
Back
SplineSet
0 1047 m 1
 1229 1047 l 1
 1229 0 l 1
 0 0 l 1
 0 1047 l 1
EndSplineSet
Fore
SplineSet
170 -99 m 16
 260 608 l 2
 272 747 325 918 496 918 c 10
 615 918 l 25
 615 105 l 25
 759 105 l 18
 886 105 994 198 994 324 c 2
 994 368 l 2
 994 462 886 558 759 558 c 10
 615 558 l 25
EndSplineSet
EndChar

StartChar: njecyrillic
Encoding: 1114 1114 521
Width: 1229
VWidth: 1947
Flags: MW
LayerCount: 2
Fore
SplineSet
235 1024 m 25
 235 0 l 25
616 1024 m 25
 616 105 l 25
 750 105 l 18
 877 105 994 194 994 320 c 2
 994 365 l 2
 994 459 877 558 750 558 c 10
 616 558 l 25
 235 558 l 25
EndSplineSet
EndChar

StartChar: apostrophereverse
Encoding: 8219 8219 523
Width: 1229
VWidth: 1708
Flags: W
HStem: 986 55<736.034 770.91>
VStem: 518 195<1308.53 1411.79>
LayerCount: 2
Fore
SplineSet
526 1300 m 17
 527 1181 543 1002 756 961 c 9
 770 1040 l 17
 722 1057 637 1108 637 1167 c 7
 637 1186 646 1209 670 1230 c 9
 526 1300 l 17
526 1297 m 7
 526 1250 563 1209 616 1209 c 7
 668 1209 706 1250 706 1297 c 7
 706 1366 670 1425 616 1425 c 7
 564 1425 526 1367 526 1297 c 7
EndSplineSet
EndChar

StartChar: arrowleft
Encoding: 8592 8592 526
Width: 1229
VWidth: 1708
Flags: W
LayerCount: 2
Fore
SplineSet
1076 -99 m 5
 204 -99 l 5
 204 1256 l 5
 1076 1256 l 5
 1076 -99 l 5
615 992 m 29
 244 600 l 29
 615 208 l 29
244 600 m 29
 1026 600 l 29
EndSplineSet
EndChar

StartChar: arrowright
Encoding: 8594 8594 527
Width: 1229
VWidth: 1708
Flags: MW
LayerCount: 2
Fore
SplineSet
154 -99 m 1
 154 1256 l 1
 1026 1256 l 1
 1026 -99 l 1
 154 -99 l 1
615 992 m 25
 986 600 l 25
 615 208 l 25
986 600 m 25
 204 600 l 25
EndSplineSet
EndChar

StartChar: lthorizform
Encoding: 9472 9472 528
Width: 1229
Flags: W
LayerCount: 2
Fore
SplineSet
1229 523 m 1
 0 523 l 1
EndSplineSet
EndChar

StartChar: ltvertform
Encoding: 9474 9474 529
Width: 1229
Flags: W
LayerCount: 2
Fore
SplineSet
615 1775 m 1
 615 -615 l 1
EndSplineSet
EndChar

StartChar: rightanglenw
Encoding: 9484 9484 530
Width: 1229
Flags: W
LayerCount: 2
Fore
SplineSet
615 -615 m 1
 615 523 l 1
 1229 523 l 1
EndSplineSet
EndChar

StartChar: rightanglene
Encoding: 9488 9488 531
Width: 1229
Flags: W
LayerCount: 2
Fore
SplineSet
615 -615 m 1
 615 523 l 1
 0 523 l 1
EndSplineSet
EndChar

StartChar: rightanglesw
Encoding: 9492 9492 532
Width: 1229
Flags: W
LayerCount: 2
Fore
SplineSet
615 1775 m 5
 615 523 l 1
 1229 523 l 1
EndSplineSet
EndChar

StartChar: rightanglese
Encoding: 9496 9496 533
Width: 1229
Flags: W
LayerCount: 2
Fore
SplineSet
615 1775 m 5
 615 523 l 1
 0 523 l 1
EndSplineSet
EndChar

StartChar: ltvertrightform
Encoding: 9500 9500 534
Width: 1229
Flags: W
LayerCount: 2
Fore
SplineSet
615 1775 m 5
 615 -615 l 1
1229 523 m 1
 615 523 l 1
EndSplineSet
EndChar

StartChar: ltvertleftform
Encoding: 9508 9508 535
Width: 1229
Flags: W
LayerCount: 2
Fore
SplineSet
615 1775 m 5
 615 -615 l 1
615 523 m 1
 0 523 l 1
EndSplineSet
EndChar

StartChar: ltdnhorizform
Encoding: 9516 9516 536
Width: 1229
Flags: W
LayerCount: 2
Fore
SplineSet
615 523 m 1
 615 -615 l 1
1229 523 m 1
 0 523 l 1
EndSplineSet
EndChar

StartChar: ltuphorizform
Encoding: 9524 9524 537
Width: 1229
Flags: W
LayerCount: 2
Fore
SplineSet
615 1775 m 5
 615 523 l 1
1229 523 m 1
 0 523 l 1
EndSplineSet
EndChar

StartChar: ltverthorizform
Encoding: 9532 9532 538
Width: 1229
Flags: W
LayerCount: 2
Fore
SplineSet
615 1775 m 5
 615 -615 l 1
1229 523 m 1
 0 523 l 1
EndSplineSet
EndChar

StartChar: horizdblbar
Encoding: 9552 9552 539
Width: 1229
Flags: W
LayerCount: 2
Fore
SplineSet
1229 374 m 1
 0 374 l 1
1229 701 m 1
 0 701 l 1
EndSplineSet
EndChar

StartChar: vertdblbar
Encoding: 9553 9553 540
Width: 1229
Flags: W
LayerCount: 2
Fore
SplineSet
467 1775 m 5
 467 -615 l 1
763 1775 m 5
 763 -615 l 1
EndSplineSet
EndChar

StartChar: dnrtdblform
Encoding: 9554 9554 541
Width: 1229
Flags: W
LayerCount: 2
Fore
SplineSet
1229 374 m 1
 615 374 l 1
1229 701 m 1
 615 701 l 1
 615 -615 l 1
EndSplineSet
EndChar

StartChar: dndblrtform
Encoding: 9555 9555 542
Width: 1229
Flags: W
LayerCount: 2
Fore
SplineSet
467 -615 m 1
 467 523 l 1
 1229 523 l 1
763 523 m 1
 763 -615 l 1
EndSplineSet
EndChar

StartChar: dbldnrtform
Encoding: 9556 9556 543
Width: 1229
Flags: W
LayerCount: 2
Fore
SplineSet
1229 374 m 1
 763 374 l 1
 763 -615 l 1
1229 701 m 1
 467 701 l 1
 467 -615 l 1
EndSplineSet
EndChar

StartChar: dnleftdblform
Encoding: 9557 9557 544
Width: 1229
Flags: W
LayerCount: 2
Fore
SplineSet
615 374 m 1
 0 374 l 1
0 701 m 1
 615 701 l 1
 615 -615 l 1
EndSplineSet
EndChar

StartChar: dndblleftform
Encoding: 9558 9558 545
Width: 1229
Flags: W
LayerCount: 2
Fore
SplineSet
467 523 m 1
 467 -615 l 1
763 -615 m 1
 763 523 l 1
 0 523 l 1
EndSplineSet
EndChar

StartChar: dbldnleftform
Encoding: 9559 9559 546
Width: 1229
Flags: W
LayerCount: 2
Fore
SplineSet
0 374 m 1
 467 374 l 1
 467 -615 l 1
0 701 m 1
 763 701 l 1
 763 -615 l 1
EndSplineSet
EndChar

StartChar: uprtdblform
Encoding: 9560 9560 547
Width: 1229
Flags: W
LayerCount: 2
Fore
SplineSet
1229 374 m 1
 615 374 l 1
 615 1775 l 5
1229 672 m 1
 615 672 l 1
EndSplineSet
EndChar

StartChar: updblrtform
Encoding: 9561 9561 548
Width: 1229
Flags: W
LayerCount: 2
Fore
SplineSet
467 1775 m 5
 467 523 l 1
 1229 523 l 1
763 1775 m 5
 763 523 l 1
EndSplineSet
EndChar

StartChar: dbluprtform
Encoding: 9562 9562 549
Width: 1229
Flags: W
LayerCount: 2
Fore
SplineSet
1229 374 m 1
 467 374 l 1
 467 1775 l 5
1229 701 m 1
 763 701 l 1
 763 1775 l 5
EndSplineSet
EndChar

StartChar: upleftdblform
Encoding: 9563 9563 550
Width: 1229
Flags: W
LayerCount: 2
Fore
SplineSet
0 374 m 1
 615 374 l 1
 615 1775 l 5
615 672 m 1
 0 672 l 1
EndSplineSet
EndChar

StartChar: updblleftform
Encoding: 9564 9564 551
Width: 1229
Flags: W
LayerCount: 2
Fore
SplineSet
467 1775 m 5
 467 523 l 1
763 1775 m 5
 763 523 l 1
 0 523 l 1
EndSplineSet
EndChar

StartChar: dblupleftform
Encoding: 9565 9565 552
Width: 1229
Flags: W
LayerCount: 2
Fore
SplineSet
0 374 m 1
 763 374 l 1
 763 1775 l 5
0 701 m 1
 467 701 l 1
 467 1775 l 5
EndSplineSet
EndChar

StartChar: vertrtdblform
Encoding: 9566 9566 553
Width: 1229
Flags: W
LayerCount: 2
Fore
SplineSet
1229 374 m 1
 615 374 l 1
1229 672 m 1
 615 672 l 1
615 1775 m 5
 615 -615 l 1
EndSplineSet
EndChar

StartChar: vertdblrtform
Encoding: 9567 9567 554
Width: 1229
Flags: W
LayerCount: 2
Fore
SplineSet
467 1775 m 1
 467 -615 l 1
763 1775 m 1
 763 -615 l 1
1229 523 m 1
 763 523 l 1
EndSplineSet
EndChar

StartChar: dblvertrtform
Encoding: 9568 9568 555
Width: 1229
Flags: W
LayerCount: 2
Fore
SplineSet
1229 374 m 1
 763 374 l 1
 763 -615 l 1
1229 701 m 1
 763 701 l 1
 763 1775 l 5
467 1775 m 5
 467 -615 l 1
EndSplineSet
EndChar

StartChar: vertleftdblform
Encoding: 9569 9569 556
Width: 1229
Flags: W
LayerCount: 2
Fore
SplineSet
615 374 m 1
 0 374 l 1
615 672 m 1
 0 672 l 1
615 1775 m 5
 615 -615 l 1
EndSplineSet
EndChar

StartChar: vertdblleftform
Encoding: 9570 9570 557
Width: 1229
Flags: W
LayerCount: 2
Fore
SplineSet
467 1775 m 5
 467 -615 l 1
763 1775 m 5
 763 -615 l 1
467 523 m 1
 0 523 l 1
EndSplineSet
EndChar

StartChar: dblvertleftform
Encoding: 9571 9571 558
Width: 1229
Flags: W
LayerCount: 2
Fore
SplineSet
0 374 m 1
 467 374 l 1
 467 -615 l 1
0 701 m 1
 467 701 l 1
 467 1775 l 5
763 1775 m 5
 763 -615 l 1
EndSplineSet
EndChar

StartChar: dnhorizdblform
Encoding: 9572 9572 559
Width: 1229
Flags: W
LayerCount: 2
Fore
SplineSet
1229 374 m 1
 0 374 l 1
1229 701 m 1
 0 701 l 1
615 374 m 1
 615 -615 l 1
EndSplineSet
EndChar

StartChar: dndblhorizform
Encoding: 9573 9573 560
Width: 1229
Flags: W
LayerCount: 2
Fore
SplineSet
467 523 m 1
 467 -615 l 1
763 523 m 1
 763 -615 l 1
1229 523 m 1
 0 523 l 1
EndSplineSet
EndChar

StartChar: dbldnhorizform
Encoding: 9574 9574 561
Width: 1229
Flags: W
LayerCount: 2
Fore
SplineSet
1229 374 m 1
 763 374 l 1
 763 -615 l 1
0 374 m 1
 467 374 l 1
 467 -615 l 1
1229 701 m 1
 0 701 l 1
EndSplineSet
EndChar

StartChar: uphorizdblform
Encoding: 9575 9575 562
Width: 1229
Flags: W
LayerCount: 2
Fore
SplineSet
1229 374 m 1
 0 374 l 1
1229 701 m 1
 0 701 l 1
615 1775 m 5
 615 701 l 1
EndSplineSet
EndChar

StartChar: updblhorizform
Encoding: 9576 9576 563
Width: 1229
Flags: W
LayerCount: 2
Fore
SplineSet
467 1775 m 5
 467 523 l 1
763 1775 m 5
 763 523 l 1
1229 523 m 1
 0 523 l 1
EndSplineSet
EndChar

StartChar: dbluphorizform
Encoding: 9577 9577 564
Width: 1229
Flags: W
LayerCount: 2
Fore
SplineSet
1229 374 m 1
 0 374 l 1
1229 701 m 1
 763 701 l 1
 763 1775 l 5
0 701 m 1
 467 701 l 1
 467 1775 l 5
EndSplineSet
EndChar

StartChar: verthorizdblform
Encoding: 9578 9578 565
Width: 1229
Flags: W
LayerCount: 2
Fore
SplineSet
1229 374 m 1
 0 374 l 1
1229 701 m 1
 0 701 l 1
615 1775 m 1
 615 701 l 1
615 374 m 1
 615 -615 l 1
EndSplineSet
EndChar

StartChar: vertdblhorizform
Encoding: 9579 9579 566
Width: 1229
Flags: W
LayerCount: 2
Fore
SplineSet
467 1775 m 1
 467 -615 l 1
763 1775 m 1
 763 -615 l 1
1229 523 m 1
 763 523 l 1
467 523 m 1
 0 523 l 1
EndSplineSet
EndChar

StartChar: dblverthorizform
Encoding: 9580 9580 567
Width: 1229
Flags: W
LayerCount: 2
Fore
SplineSet
1229 374 m 1
 763 374 l 1
 763 -615 l 1
0 374 m 1
 467 374 l 1
 467 -615 l 1
1229 701 m 1
 763 701 l 1
 763 1775 l 5
0 701 m 1
 467 701 l 1
 467 1775 l 5
EndSplineSet
EndChar

StartChar: upblock
Encoding: 9600 9600 568
Width: 1229
Flags: W
VStem: -0 922<523 1775>
LayerCount: 2
Fore
SplineSet
1229 523 m 1
 0 523 l 1
 0 1775 l 5
 1229 1775 l 5
 1229 523 l 1
EndSplineSet
EndChar

StartChar: dnblock
Encoding: 9604 9604 569
Width: 1229
Flags: W
HStem: -615 1138<0 922>
VStem: -0 922<-615 523>
LayerCount: 2
Fore
SplineSet
1229 -615 m 1
 0 -615 l 1
 0 523 l 1
 1229 523 l 1
 1229 -615 l 1
EndSplineSet
EndChar

StartChar: block
Encoding: 9608 9608 570
Width: 1229
Flags: W
VStem: -0 922<-615 1775>
LayerCount: 2
Fore
SplineSet
0 -615 m 1
 0 1775 l 5
 1229 1775 l 5
 1229 -615 l 1
 0 -615 l 1
EndSplineSet
EndChar

StartChar: lfblock
Encoding: 9612 9612 571
Width: 1229
Flags: W
VStem: -0 461<-615 1775>
LayerCount: 2
Fore
SplineSet
0 -615 m 1
 0 1775 l 5
 615 1775 l 5
 615 -615 l 1
 0 -615 l 1
EndSplineSet
EndChar

StartChar: rtblock
Encoding: 9616 9616 572
Width: 1229
Flags: W
VStem: 461 461<-615 1775>
LayerCount: 2
Fore
SplineSet
615 -615 m 1
 615 1775 l 1
 1229 1775 l 1
 1229 -615 l 1
 615 -615 l 1
EndSplineSet
EndChar

StartChar: shadelight
Encoding: 9617 9617 573
Width: 1229
Flags: W
HStem: -514 100<153 230 461 540 769 846> -315 100<0 77 307 385 616 693> -115 99<153 230 461 540 769 846> 83 100<0 77 307 385 616 693> 283 99<153 230 461 540 769 846> 482 99<0 77 307 385 616 693> 681 100<153 230 461 540 769 846> 881 99<0 77 307 385 616 693> 1080 99<153 230 461 540 769 846> 1278 100<0 77 307 385 616 693> 1477 100<153 230 461 540 769 846> 1677 98<0 77 307 385 616 693>
VStem: 0 77<-315 -215 83 183 482 581 881 980 1278 1378 1677 1775> 153 77<-514 -414 -115 -16 283 382 681 781 1080 1179 1477 1577> 307 78<-315 -215 83 183 482 581 881 980 1278 1378 1677 1775> 461 79<-514 -414 -115 -16 283 382 681 781 1080 1179 1477 1577> 616 77<-315 -215 83 183 482 581 881 980 1278 1378 1677 1775> 769 77<-514 -414 -115 -16 283 382 681 781 1080 1179 1477 1577>
LayerCount: 2
Fore
SplineSet
0 1366 m 1
 103 1366 l 1
 103 1253 l 1
 0 1253 l 1
 0 1366 l 1
426 1366 m 1
 522 1366 l 1
 522 1253 l 1
 426 1253 l 1
 426 1366 l 1
808 1366 m 1
 901 1366 l 1
 901 1253 l 1
 808 1253 l 1
 808 1366 l 1
235 1164 m 1
 332 1164 l 1
 332 1075 l 1
 235 1075 l 1
 235 1164 l 1
616 1164 m 1
 714 1164 l 1
 714 1075 l 1
 616 1075 l 1
 616 1164 l 1
996 1164 m 1
 1129 1164 l 1
 1129 1075 l 1
 996 1075 l 1
 996 1164 l 1
808 951 m 1
 901 951 l 1
 901 856 l 1
 808 856 l 1
 808 951 l 1
426 951 m 1
 522 951 l 1
 522 856 l 1
 426 856 l 1
 426 951 l 1
0 951 m 1
 103 951 l 1
 103 856 l 1
 0 856 l 1
 0 951 l 1
996 763 m 1
 1129 763 l 1
 1129 670 l 1
 996 670 l 1
 996 763 l 1
616 763 m 1
 714 763 l 1
 714 670 l 1
 616 670 l 1
 616 763 l 1
235 763 m 1
 332 763 l 1
 332 670 l 1
 235 670 l 1
 235 763 l 1
0 577 m 1
 103 577 l 1
 103 485 l 1
 0 485 l 1
 0 577 l 1
426 577 m 1
 522 577 l 1
 522 485 l 1
 426 485 l 1
 426 577 l 1
808 577 m 1
 901 577 l 1
 901 485 l 1
 808 485 l 1
 808 577 l 1
996 392 m 1
 1129 392 l 1
 1129 299 l 1
 996 299 l 1
 996 392 l 1
616 392 m 1
 714 392 l 1
 714 299 l 1
 616 299 l 1
 616 392 l 1
235 392 m 1
 332 392 l 1
 332 299 l 1
 235 299 l 1
 235 392 l 1
0 206 m 1
 103 206 l 1
 103 113 l 1
 0 113 l 1
 0 206 l 1
426 206 m 1
 522 206 l 1
 522 113 l 1
 426 113 l 1
 426 206 l 1
808 206 m 1
 901 206 l 1
 901 113 l 1
 808 113 l 1
 808 206 l 1
235 -16 m 1
 332 -16 l 1
 332 -115 l 1
 235 -115 l 1
 235 -16 l 1
616 -16 m 1
 714 -16 l 1
 714 -115 l 1
 616 -115 l 1
 616 -16 l 1
996 -16 m 1
 1129 -16 l 1
 1129 -115 l 1
 996 -115 l 1
 996 -16 l 1
808 -215 m 1
 901 -215 l 1
 901 -315 l 1
 808 -315 l 1
 808 -215 l 1
426 -215 m 1
 522 -215 l 1
 522 -315 l 1
 426 -315 l 1
 426 -215 l 1
0 -215 m 1
 103 -215 l 1
 103 -315 l 1
 0 -315 l 1
 0 -215 l 1
235 -414 m 1
 332 -414 l 1
 332 -514 l 1
 235 -514 l 1
 235 -414 l 1
616 -414 m 1
 714 -414 l 1
 714 -514 l 1
 616 -514 l 1
 616 -414 l 1
996 -414 m 1
 1129 -414 l 1
 1129 -514 l 1
 996 -514 l 1
 996 -414 l 1
235 1577 m 1
 332 1577 l 1
 332 1477 l 1
 235 1477 l 1
 235 1577 l 1
616 1577 m 1
 714 1577 l 1
 714 1477 l 1
 616 1477 l 1
 616 1577 l 1
996 1577 m 1
 1129 1577 l 1
 1129 1477 l 1
 996 1477 l 1
 996 1577 l 1
0 1775 m 1
 103 1775 l 1
 103 1677 l 1
 0 1677 l 1
 0 1775 l 1
426 1775 m 1
 522 1775 l 1
 522 1677 l 1
 426 1677 l 1
 426 1775 l 1
808 1775 m 1
 901 1775 l 1
 901 1677 l 1
 808 1677 l 1
 808 1775 l 1
EndSplineSet
EndChar

StartChar: shademedium
Encoding: 9618 9618 574
Width: 1229
Flags: W
HStem: -514 100<0 77 153 230 307 384 461 539 616 692 769 846> -315 100<77 153 230 307 384 461 539 616 692 769 846 922> -115 99<0 77 153 230 307 384 461 539 616 692 769 846> 83 100<77 153 230 307 384 461 539 616 692 769 846 922> 283 99<0 77 153 230 307 384 461 539 616 692 769 846> 482 99<77 153 230 307 384 461 539 616 692 769 846 922> 681 100<0 77 153 230 307 384 461 539 616 692 769 846> 881 99<77 153 230 307 384 461 539 616 692 769 846 922> 1080 99<0 77 153 230 307 384 461 539 616 692 769 846> 1278 100<77 153 230 307 384 461 539 616 692 769 846 922> 1477 100<0 77 153 230 307 384 461 539 616 692 769 846> 1677 98<77 153 230 307 384 461 539 616 692 769 846 922>
VStem: 0 77<-514 -414 -115 -16 283 382 681 781 1080 1179 1477 1577> 77 76<-315 -215 83 183 482 581 881 980 1278 1378 1677 1775> 153 77<-514 -414 -115 -16 283 382 681 781 1080 1179 1477 1577> 230 77<-315 -215 83 183 482 581 881 980 1278 1378 1677 1775> 307 77<-514 -414 -115 -16 283 382 681 781 1080 1179 1477 1577> 384 77<-315 -215 83 183 482 581 881 980 1278 1378 1677 1775> 461 78<-514 -414 -115 -16 283 382 681 781 1080 1179 1477 1577> 539 77<-315 -215 83 183 482 581 881 980 1278 1378 1677 1775> 616 76<-514 -414 -115 -16 283 382 681 781 1080 1179 1477 1577> 692 77<-315 -215 83 183 482 581 881 980 1278 1378 1677 1775> 769 77<-514 -414 -115 -16 283 382 681 781 1080 1179 1477 1577> 846 76<-315 -215 83 183 482 581 881 980 1278 1378 1677 1775>
LayerCount: 2
Fore
SplineSet
103 1366 m 1
 235 1366 l 1
 235 1253 l 1
 103 1253 l 1
 103 1366 l 1
332 1366 m 1
 426 1366 l 1
 426 1253 l 1
 332 1253 l 1
 332 1366 l 1
521 1366 m 1
 616 1366 l 1
 616 1253 l 1
 521 1253 l 1
 521 1366 l 1
713 1366 m 1
 808 1366 l 1
 808 1253 l 1
 713 1253 l 1
 713 1366 l 1
900 1366 m 1
 996 1366 l 1
 996 1253 l 1
 900 1253 l 1
 900 1366 l 1
1129 1366 m 1
 1229 1366 l 1
 1229 1253 l 1
 1129 1253 l 1
 1129 1366 l 1
0 1164 m 1
 103 1164 l 1
 103 1075 l 1
 0 1075 l 1
 0 1164 l 1
235 1164 m 1
 332 1164 l 1
 332 1075 l 1
 235 1075 l 1
 235 1164 l 1
426 1164 m 1
 521 1164 l 1
 521 1075 l 1
 426 1075 l 1
 426 1164 l 1
616 1164 m 1
 713 1164 l 1
 713 1075 l 1
 616 1075 l 1
 616 1164 l 1
808 1164 m 1
 900 1164 l 1
 900 1075 l 1
 808 1075 l 1
 808 1164 l 1
996 1164 m 1
 1129 1164 l 1
 1129 1075 l 1
 996 1075 l 1
 996 1164 l 1
103 951 m 1
 235 951 l 1
 235 856 l 1
 103 856 l 1
 103 951 l 1
332 951 m 1
 426 951 l 1
 426 856 l 1
 332 856 l 1
 332 951 l 1
521 951 m 1
 616 951 l 1
 616 856 l 1
 521 856 l 1
 521 951 l 1
713 951 m 1
 808 951 l 1
 808 856 l 1
 713 856 l 1
 713 951 l 1
900 951 m 1
 996 951 l 1
 996 856 l 1
 900 856 l 1
 900 951 l 1
1129 951 m 1
 1229 951 l 1
 1229 856 l 1
 1129 856 l 1
 1129 951 l 1
0 763 m 1
 103 763 l 1
 103 670 l 1
 0 670 l 1
 0 763 l 1
235 763 m 1
 332 763 l 1
 332 670 l 1
 235 670 l 1
 235 763 l 1
426 763 m 1
 521 763 l 1
 521 670 l 1
 426 670 l 1
 426 763 l 1
616 763 m 1
 713 763 l 1
 713 670 l 1
 616 670 l 1
 616 763 l 1
808 763 m 1
 900 763 l 1
 900 670 l 1
 808 670 l 1
 808 763 l 1
996 763 m 1
 1129 763 l 1
 1129 670 l 1
 996 670 l 1
 996 763 l 1
103 577 m 1
 235 577 l 1
 235 485 l 1
 103 485 l 1
 103 577 l 1
332 577 m 1
 426 577 l 1
 426 485 l 1
 332 485 l 1
 332 577 l 1
521 577 m 1
 616 577 l 1
 616 485 l 1
 521 485 l 1
 521 577 l 1
713 577 m 1
 808 577 l 1
 808 485 l 1
 713 485 l 1
 713 577 l 1
900 577 m 1
 996 577 l 1
 996 485 l 1
 900 485 l 1
 900 577 l 1
1129 577 m 1
 1229 577 l 1
 1229 485 l 1
 1129 485 l 1
 1129 577 l 1
0 392 m 1
 103 392 l 1
 103 299 l 1
 0 299 l 1
 0 392 l 1
426 392 m 1
 521 392 l 1
 521 299 l 1
 426 299 l 1
 426 392 l 1
616 392 m 1
 713 392 l 1
 713 299 l 1
 616 299 l 1
 616 392 l 1
808 392 m 1
 900 392 l 1
 900 299 l 1
 808 299 l 1
 808 392 l 1
996 392 m 1
 1129 392 l 1
 1129 299 l 1
 996 299 l 1
 996 392 l 1
235 392 m 1
 332 392 l 1
 332 299 l 1
 235 299 l 1
 235 392 l 1
1129 206 m 1
 1229 206 l 1
 1229 113 l 1
 1129 113 l 1
 1129 206 l 1
900 206 m 1
 996 206 l 1
 996 113 l 1
 900 113 l 1
 900 206 l 1
713 206 m 1
 808 206 l 1
 808 113 l 1
 713 113 l 1
 713 206 l 1
521 206 m 1
 616 206 l 1
 616 113 l 1
 521 113 l 1
 521 206 l 1
332 206 m 1
 426 206 l 1
 426 113 l 1
 332 113 l 1
 332 206 l 1
103 206 m 1
 235 206 l 1
 235 113 l 1
 103 113 l 1
 103 206 l 1
0 -16 m 1
 103 -16 l 1
 103 -115 l 1
 0 -115 l 1
 0 -16 l 1
235 -16 m 1
 332 -16 l 1
 332 -115 l 1
 235 -115 l 1
 235 -16 l 1
426 -16 m 1
 521 -16 l 1
 521 -115 l 1
 426 -115 l 1
 426 -16 l 1
616 -16 m 1
 713 -16 l 1
 713 -115 l 1
 616 -115 l 1
 616 -16 l 1
808 -16 m 1
 900 -16 l 1
 900 -115 l 1
 808 -115 l 1
 808 -16 l 1
996 -16 m 1
 1129 -16 l 1
 1129 -115 l 1
 996 -115 l 1
 996 -16 l 1
1129 -215 m 1
 1229 -215 l 1
 1229 -315 l 1
 1129 -315 l 1
 1129 -215 l 1
900 -215 m 1
 996 -215 l 1
 996 -315 l 1
 900 -315 l 1
 900 -215 l 1
713 -215 m 1
 808 -215 l 1
 808 -315 l 1
 713 -315 l 1
 713 -215 l 1
521 -215 m 1
 616 -215 l 1
 616 -315 l 1
 521 -315 l 1
 521 -215 l 1
332 -215 m 1
 426 -215 l 1
 426 -315 l 1
 332 -315 l 1
 332 -215 l 1
103 -215 m 1
 235 -215 l 1
 235 -315 l 1
 103 -315 l 1
 103 -215 l 1
0 -414 m 1
 103 -414 l 1
 103 -514 l 1
 0 -514 l 1
 0 -414 l 1
235 -414 m 1
 332 -414 l 1
 332 -514 l 1
 235 -514 l 1
 235 -414 l 1
426 -414 m 1
 521 -414 l 1
 521 -514 l 1
 426 -514 l 1
 426 -414 l 1
616 -414 m 1
 713 -414 l 1
 713 -514 l 1
 616 -514 l 1
 616 -414 l 1
808 -414 m 1
 900 -414 l 1
 900 -514 l 1
 808 -514 l 1
 808 -414 l 1
996 -414 m 1
 1129 -414 l 1
 1129 -514 l 1
 996 -514 l 1
 996 -414 l 1
0 1577 m 1
 103 1577 l 1
 103 1477 l 1
 0 1477 l 1
 0 1577 l 1
235 1577 m 1
 332 1577 l 1
 332 1477 l 1
 235 1477 l 1
 235 1577 l 1
426 1577 m 1
 521 1577 l 1
 521 1477 l 1
 426 1477 l 1
 426 1577 l 1
616 1577 m 1
 713 1577 l 1
 713 1477 l 1
 616 1477 l 1
 616 1577 l 1
808 1577 m 1
 900 1577 l 1
 900 1477 l 1
 808 1477 l 1
 808 1577 l 1
996 1577 m 1
 1129 1577 l 1
 1129 1477 l 1
 996 1477 l 1
 996 1577 l 1
103 1775 m 1
 235 1775 l 1
 235 1677 l 1
 103 1677 l 1
 103 1775 l 1
332 1775 m 1
 426 1775 l 1
 426 1677 l 1
 332 1677 l 1
 332 1775 l 1
521 1775 m 1
 616 1775 l 1
 616 1677 l 1
 521 1677 l 1
 521 1775 l 1
713 1775 m 1
 808 1775 l 1
 808 1677 l 1
 713 1677 l 1
 713 1775 l 1
900 1775 m 1
 996 1775 l 1
 996 1677 l 1
 900 1677 l 1
 900 1775 l 1
1129 1775 m 1
 1229 1775 l 1
 1229 1677 l 1
 1129 1677 l 1
 1129 1775 l 1
EndSplineSet
EndChar

StartChar: shadedark
Encoding: 9619 9619 575
Width: 1229
Flags: W
HStem: -615 300<0 77 153 230 307 384 461 539 616 692 769 846> -615 101<77 153 230 307 384 461 539 616 692 769 846 922> -414 299<77 153 230 307 384 461 539 616 692 769 846 922> -215 299<0 77 153 230 307 384 461 539 616 692 769 846> -16 299<77 153 230 307 384 461 539 616 692 769 846 922> 183 299<0 77 153 230 307 384 461 539 616 692 769 846> 382 299<77 153 230 307 384 461 539 616 692 769 846 922> 581 299<0 77 153 230 307 384 461 539 616 692 769 846> 781 299<77 153 230 307 384 461 539 616 692 769 846 922> 980 299<0 77 153 230 307 384 461 539 616 692 769 846> 1179 299<77 153 230 307 384 461 539 616 692 769 846 922> 1378 299<0 77 153 230 307 384 461 539 616 692 769 846> 1577 198<77 153 230 307 384 461 539 616 692 769 846 922>
VStem: 0 77<-514 -414 -115 -16 283 382 681 781 1080 1179 1478 1577> 77 76<-315 -215 84 183 482 581 881 980 1279 1378 1677 1775> 153 77<-514 -414 -115 -16 283 382 681 781 1080 1179 1478 1577> 230 77<-315 -215 84 183 482 581 880 980 1279 1378 1677 1775> 307 77<-514 -414 -115 -16 283 382 681 781 1080 1179 1478 1577> 384 77<-315 -215 84 183 482 581 880 980 1279 1378 1677 1775> 461 78<-514 -414 -115 -16 283 382 681 781 1080 1179 1478 1577> 539 77<-315 -215 84 183 482 581 880 980 1279 1378 1677 1775> 616 76<-514 -414 -115 -16 283 382 681 781 1080 1179 1478 1577> 692 77<-315 -215 84 183 482 581 880 980 1279 1378 1677 1775> 769 77<-514 -414 -115 -16 283 382 681 781 1080 1179 1478 1577> 846 76<-315 -215 84 183 482 581 880 980 1279 1378 1677 1775>
LayerCount: 2
Fore
SplineSet
1229 1577 m 1x000fff80
 1129 1577 l 1
 1129 1478 l 1
 1229 1478 l 1
 1229 1164 l 1
 1129 1164 l 1
 1129 1075 l 1
 1229 1075 l 1
 1229 763 l 1
 1129 763 l 1
 1129 670 l 1
 1229 670 l 1
 1229 392 l 1
 1129 392 l 1
 1129 299 l 1
 1229 299 l 1
 1229 -16 l 1
 1129 -16 l 1
 1129 -115 l 1
 1229 -115 l 1
 1229 -414 l 1
 1129 -414 l 1
 1129 -514 l 1
 1229 -514 l 1
 1229 -615 l 1x6aafff80
 0 -615 l 1
 0 -315 l 1
 103 -315 l 1
 103 -215 l 1
 0 -215 l 1
 0 113 l 1
 103 113 l 1
 103 206 l 1
 0 206 l 1
 0 485 l 1
 103 485 l 1
 103 577 l 1
 0 577 l 1
 0 856 l 1
 103 856 l 1
 103 951 l 1
 0 951 l 1
 0 1254 l 1
 103 1254 l 1
 103 1366 l 1
 0 1366 l 1
 0 1677 l 1
 103 1677 l 1x9557ff80
 103 1775 l 1
 235 1775 l 1x000fff80
 235 1677 l 1
 332 1677 l 1x0017ff80
 332 1775 l 1
 426 1775 l 1x000fff80
 426 1677 l 1
 521 1677 l 1x0017ff80
 521 1775 l 1
 616 1775 l 1x000fff80
 616 1677 l 1
 713 1677 l 1x0017ff80
 713 1775 l 1
 808 1775 l 1x000fff80
 808 1677 l 1
 900 1677 l 1x0017ff80
 900 1775 l 1
 996 1775 l 1x000fff80
 996 1677 l 1
 1129 1677 l 1x0017ff80
 1129 1775 l 1
 1229 1775 l 1
 1229 1577 l 1x000fff80
103 1164 m 1
 103 1075 l 1
 235 1075 l 1
 235 1164 l 1
 103 1164 l 1
332 1164 m 1
 332 1075 l 1
 426 1075 l 1
 426 1164 l 1
 332 1164 l 1
521 1164 m 1
 521 1075 l 1
 616 1075 l 1
 616 1164 l 1
 521 1164 l 1
713 1164 m 1
 713 1075 l 1
 808 1075 l 1
 808 1164 l 1
 713 1164 l 1
900 1164 m 1
 900 1075 l 1
 996 1075 l 1
 996 1164 l 1
 900 1164 l 1
1129 951 m 1x0147ff80
 996 951 l 1
 996 855 l 1
 1129 855 l 1
 1129 951 l 1x0147ff80
900 951 m 1
 808 951 l 1
 808 855 l 1
 900 855 l 1
 900 951 l 1
713 951 m 1
 616 951 l 1
 616 855 l 1
 713 855 l 1
 713 951 l 1
521 951 m 1
 426 951 l 1
 426 855 l 1
 521 855 l 1
 521 951 l 1
332 951 m 1
 235 951 l 1
 235 855 l 1
 332 855 l 1
 332 951 l 1
103 763 m 1x0287ff80
 103 670 l 1
 235 670 l 1
 235 763 l 1
 103 763 l 1x0287ff80
332 763 m 1
 332 670 l 1
 426 670 l 1
 426 763 l 1
 332 763 l 1
521 763 m 1
 521 670 l 1
 616 670 l 1
 616 763 l 1
 521 763 l 1
713 763 m 1
 713 670 l 1
 808 670 l 1
 808 763 l 1
 713 763 l 1
900 763 m 1
 900 670 l 1
 996 670 l 1
 996 763 l 1
 900 763 l 1
332 577 m 1x0507ff80
 235 577 l 1
 235 485 l 1
 332 485 l 1
 332 577 l 1x0507ff80
426 577 m 1
 426 485 l 1
 521 485 l 1
 521 577 l 1
 426 577 l 1
616 577 m 1
 616 485 l 1
 713 485 l 1
 713 577 l 1
 616 577 l 1
808 577 m 1
 808 485 l 1
 900 485 l 1
 900 577 l 1
 808 577 l 1
996 577 m 1
 996 485 l 1
 1129 485 l 1
 1129 577 l 1
 996 577 l 1
103 392 m 1x0a07ff80
 103 299 l 1
 235 299 l 1
 235 392 l 1
 103 392 l 1x0a07ff80
521 392 m 1
 521 299 l 1
 616 299 l 1
 616 392 l 1
 521 392 l 1
426 299 m 1
 426 392 l 1
 332 392 l 1
 332 299 l 1
 426 299 l 1
713 392 m 1
 713 299 l 1
 808 299 l 1
 808 392 l 1
 713 392 l 1
900 392 m 1
 900 299 l 1
 996 299 l 1
 996 392 l 1
 900 392 l 1
1129 114 m 1x1407ff80
 1129 206 l 1
 996 206 l 1
 996 114 l 1
 1129 114 l 1x1407ff80
900 114 m 1
 900 206 l 1
 808 206 l 1
 808 114 l 1
 900 114 l 1
713 114 m 1
 713 206 l 1
 616 206 l 1
 616 114 l 1
 713 114 l 1
521 114 m 1
 521 206 l 1
 426 206 l 1
 426 114 l 1
 521 114 l 1
332 114 m 1
 332 206 l 1
 235 206 l 1
 235 114 l 1
 332 114 l 1
103 -16 m 1x2807ff80
 103 -115 l 1
 235 -115 l 1
 235 -16 l 1
 103 -16 l 1x2807ff80
332 -16 m 1
 332 -115 l 1
 426 -115 l 1
 426 -16 l 1
 332 -16 l 1
521 -16 m 1
 521 -115 l 1
 616 -115 l 1
 616 -16 l 1
 521 -16 l 1
713 -16 m 1
 713 -115 l 1
 808 -115 l 1
 808 -16 l 1
 713 -16 l 1
900 -16 m 1
 900 -115 l 1
 996 -115 l 1
 996 -16 l 1
 900 -16 l 1
1129 -315 m 1x9007ff80
 1129 -215 l 1
 996 -215 l 1
 996 -315 l 1
 1129 -315 l 1x9007ff80
900 -315 m 1
 900 -215 l 1
 808 -215 l 1
 808 -315 l 1
 900 -315 l 1
713 -315 m 1
 713 -215 l 1
 616 -215 l 1
 616 -315 l 1
 713 -315 l 1
521 -315 m 1
 521 -215 l 1
 426 -215 l 1
 426 -315 l 1
 521 -315 l 1
332 -315 m 1
 332 -215 l 1
 235 -215 l 1
 235 -315 l 1
 332 -315 l 1
103 -414 m 1x6007ff80
 103 -514 l 1
 235 -514 l 1
 235 -414 l 1
 103 -414 l 1x6007ff80
332 -414 m 1
 332 -514 l 1
 426 -514 l 1
 426 -414 l 1
 332 -414 l 1
521 -414 m 1
 521 -514 l 1
 616 -514 l 1
 616 -414 l 1
 521 -414 l 1
713 -414 m 1
 713 -514 l 1
 808 -514 l 1
 808 -414 l 1
 713 -414 l 1
900 -414 m 1
 900 -514 l 1
 996 -514 l 1
 996 -414 l 1
 900 -414 l 1
1129 1366 m 1x0057ff80
 996 1366 l 1
 996 1254 l 1
 1129 1254 l 1
 1129 1366 l 1x0057ff80
900 1366 m 1
 808 1366 l 1
 808 1254 l 1
 900 1254 l 1
 900 1366 l 1
713 1366 m 1
 616 1366 l 1
 616 1254 l 1
 713 1254 l 1
 713 1366 l 1
521 1366 m 1
 426 1366 l 1
 426 1254 l 1
 521 1254 l 1
 521 1366 l 1
332 1366 m 1
 235 1366 l 1
 235 1254 l 1
 332 1254 l 1
 332 1366 l 1
996 1577 m 1x002fff80
 900 1577 l 1
 900 1478 l 1
 996 1478 l 1
 996 1577 l 1x002fff80
808 1577 m 1
 713 1577 l 1
 713 1478 l 1
 808 1478 l 1
 808 1577 l 1
616 1577 m 1
 521 1577 l 1
 521 1478 l 1
 616 1478 l 1
 616 1577 l 1
426 1577 m 1
 332 1577 l 1
 332 1478 l 1
 426 1478 l 1
 426 1577 l 1
235 1577 m 1
 103 1577 l 1
 103 1478 l 1
 235 1478 l 1
 235 1577 l 1
EndSplineSet
EndChar

StartChar: blacksquare
Encoding: 9632 9632 576
Width: 1229
Flags: W
HStem: 84 1057<0 922>
VStem: 0 922<84 1141>
LayerCount: 2
Fore
SplineSet
0 1522 m 5
 1229 1522 l 5
 1229 141 l 5
 0 141 l 5
 0 1522 l 5
EndSplineSet
EndChar

StartChar: whitesquare
Encoding: 9633 9633 577
Width: 1229
Flags: W
HStem: 84 224<187 734> 949 192<187 734>
VStem: 0 187<308 949> 734 188<308 949>
LayerCount: 2
Fore
SplineSet
0 1522 m 1
 1229 1522 l 1
 1229 141 l 1
 0 141 l 1
 0 1522 l 1
279 1242 m 1
 279 419 l 1
 952 419 l 1
 952 1242 l 1
 279 1242 l 1
EndSplineSet
EndChar

StartChar: blacksmallsquare
Encoding: 9642 9642 578
Width: 1229
Flags: W
HStem: 400.365 472.271<224.175 696.825>
VStem: 224.175 472.65<400.365 872.635>
LayerCount: 2
Fore
SplineSet
907 533 m 5
 324 533 l 5
 324 1151 l 5
 907 1151 l 5
 907 533 l 5
EndSplineSet
EndChar

StartChar: whitesmallsquare
Encoding: 9643 9643 579
Width: 1229
Flags: W
HStem: 400.365 113.926<341.925 579.075> 758.709 113.926<341.925 579.075>
VStem: 224.175 117.75<514.291 758.709> 579.075 117.75<514.291 758.709>
LayerCount: 2
Fore
SplineSet
907 533 m 1
 324 533 l 1
 324 1151 l 1
 907 1151 l 1
 907 533 l 1
762 674 m 1
 762 1002 l 1
 469 1002 l 1
 469 674 l 1
 762 674 l 1
EndSplineSet
EndChar

StartChar: blackrectangle
Encoding: 9644 9644 580
Width: 1229
Flags: W
HStem: 395 231<0 922>
LayerCount: 2
Fore
SplineSet
0 813 m 1
 1229 813 l 5
 1229 527 l 5
 0 527 l 1
 0 813 l 1
EndSplineSet
EndChar

StartChar: triagup
Encoding: 9650 9650 581
Width: 1229
Flags: W
LayerCount: 2
Fore
SplineSet
0 138 m 5
 615 1238 l 5
 1229 138 l 5
 0 138 l 5
EndSplineSet
EndChar

StartChar: triagrt
Encoding: 9658 9658 582
Width: 1229
Flags: W
LayerCount: 2
Fore
SplineSet
85 -83 m 1
 83 1175 l 1
 1148 531 l 1
 85 -83 l 1
EndSplineSet
EndChar

StartChar: triagdn
Encoding: 9660 9660 583
Width: 1229
Flags: W
LayerCount: 2
Fore
SplineSet
1229 1238 m 5
 617 138 l 5
 0 1238 l 5
 1229 1238 l 5
EndSplineSet
EndChar

StartChar: triaglf
Encoding: 9668 9668 584
Width: 1229
Flags: W
LayerCount: 2
Fore
SplineSet
84 531 m 5
 1147 1176 l 5
 1147 -83 l 5
 84 531 l 5
EndSplineSet
EndChar

StartChar: lozenge
Encoding: 9674 9674 585
Width: 1229
Flags: W
DStem2: 261 710 89 709 0.489251 -0.872143<0 400.76> 89 709 261 710 0.486669 0.873586<84.5807 485.336> 501 1287 458 1059 0.499203 -0.866485<176.093 577.838> 458 361 501 135 0.501808 0.864979<0 401.737>
LayerCount: 2
Fore
SplineSet
665 1759 m 1
 1113 964 l 1
 665 165 l 1
 554 165 l 1
 119 964 l 1
 554 1759 l 1
 665 1759 l 1
613 1412 m 1
 369 969 l 1
 613 485 l 1
 858 969 l 1
 613 1412 l 1
EndSplineSet
EndChar

StartChar: whitecircle
Encoding: 9675 9675 586
Width: 1229
Flags: W
HStem: 221 150<334.35 586.595> 784 150<333.91 587.132>
VStem: 104 150<452.439 703.668> 668 150<451.815 701.975>
LayerCount: 2
Fore
SplineSet
616 1263 m 0
 865 1263 1091 1027 1091 754 c 0
 1091 505 860 271 616 271 c 0
 366 271 140 510 140 754 c 0
 140 1012 356 1263 616 1263 c 0
616 1046 m 0
 468 1046 361 891 361 754 c 0
 361 599 485 498 616 498 c 256
 759 498 871 611 871 754 c 0
 871 885 767 1046 616 1046 c 0
EndSplineSet
EndChar

StartChar: blackcircle
Encoding: 9679 9679 587
Width: 1229
Flags: W
HStem: 221 713<292.824 631.094>
VStem: 104 714<407.906 745.646>
LayerCount: 2
Fore
SplineSet
616 1263 m 0
 865 1263 1091 1027 1091 754 c 0
 1091 505 860 271 616 271 c 0
 366 271 140 510 140 754 c 0
 140 1012 356 1263 616 1263 c 0
EndSplineSet
EndChar

StartChar: bulletinverse
Encoding: 9688 9688 588
Width: 1229
Flags: W
HStem: 93.0996 233.28<349.727 573.114> 653.62 233.28<348.385 573.674>
VStem: 63 234<377.921 601.629> 624 233<379.634 603.318>
LayerCount: 2
Fore
SplineSet
85 113 m 1
 85 1206 l 1
 1144 1206 l 1
 1144 113 l 1
 85 113 l 1
615 848 m 256
 506 848 414 762 414 645 c 0
 414 526 510 442 615 442 c 0
 726 442 817 531 817 645 c 0
 817 758 728 848 615 848 c 256
EndSplineSet
EndChar

StartChar: whitecircleinverse
Encoding: 9689 9689 589
Width: 1229
Flags: W
HStem: 110 111<289.809 635.959> 371 413<335.607 588.433> 934 111<293.797 632.866>
VStem: 0 105<406.695 749.753> 255 413<448.029 702.431> 818 104<402.264 747.094>
LayerCount: 2
Fore
SplineSet
0 134 m 1
 0 1394 l 1
 1229 1394 l 1
 1229 134 l 1
 0 134 l 1
616 1263 m 0
 381 1263 142 1040 142 753 c 0
 142 507 369 271 616 271 c 0
 852 271 1091 495 1091 753 c 0
 1091 1033 863 1263 616 1263 c 0
617 1046 m 0
 759 1046 871 894 871 753 c 0
 871 606 755 498 617 498 c 0
 478 498 362 606 362 753 c 0
 362 900 480 1046 617 1046 c 0
EndSplineSet
EndChar

StartChar: whitebullet
Encoding: 9702 9702 590
Width: 1229
Flags: W
HStem: 406 113<368.896 552.757> 754 113<368.685 552.223>
VStem: 230 113<545.062 727.979> 579 112<546.84 727.446>
LayerCount: 2
Fore
SplineSet
899 827 m 0
 899 656 763 540 615 540 c 256
 458 540 332 666 332 827 c 0
 332 1020 457 1143 615 1143 c 0
 776 1143 899 1013 899 827 c 0
762 827 m 0
 762 911 693 994 615 994 c 256
 540 994 470 914 470 827 c 0
 470 739 540 681 615 681 c 256
 696 681 762 745 762 827 c 0
EndSplineSet
EndChar

StartChar: smileface
Encoding: 9786 9786 591
Width: 1229
Flags: W
HStem: 124 126<298.564 622.839> 338 54<371.617 548.201> 608 114<255.697 366.296 555.643 665.674> 919 126<293.127 624.394>
VStem: -0 127<417.754 749.129> 254 114<609.589 720.417> 554 113<609.487 720.519> 795 126<419.528 752.828>
LayerCount: 2
Fore
SplineSet
1228 761 m 0
 1228 443 935 151 615 151 c 0
 296 151 0 445 0 761 c 0
 0 1125 309 1394 615 1394 c 0
 935 1394 1228 1113 1228 761 c 0
1045 761 m 0
 1045 1028 848 1244 615 1244 c 0
 383 1244 188 1027 188 761 c 0
 188 521 395 308 615 308 c 0
 839 308 1045 524 1045 761 c 0
502 863 m 256
 502 824 470 791 430 791 c 256
 391 791 361 826 361 863 c 256
 361 899 389 933 430 933 c 256
 472 933 502 900 502 863 c 256
870 863 m 256
 870 824 841 791 802 791 c 256
 760 791 730 824 730 863 c 256
 730 901 759 933 802 933 c 256
 841 933 870 901 870 863 c 256
393 606 m 1
 441 633 l 1
 480 561 539 524 615 524 c 256
 692 524 750 561 789 633 c 1
 838 606 l 1
 787 506 713 457 615 457 c 0
 495 457 430 535 393 606 c 1
EndSplineSet
EndChar

StartChar: invsmileface
Encoding: 9787 9787 592
Width: 1229
Flags: W
HStem: 124 171<330.15 591.942> 738 307<261.901 501.505 421.958 661.515>
VStem: -0 226<494.273 736.313> 343 236<622.894 736.048> 695 226<493.852 734.781>
LayerCount: 2
Fore
SplineSet
1228 761 m 0
 1228 443 935 151 615 151 c 0
 296 151 0 445 0 761 c 0
 0 1125 309 1394 615 1394 c 0
 935 1394 1228 1113 1228 761 c 0
470 880 m 256
 470 917 440 959 398 959 c 256
 356 959 326 916 326 880 c 256
 326 843 356 807 398 807 c 256
 439 807 470 841 470 880 c 256
905 880 m 256
 905 918 876 959 834 959 c 256
 791 959 762 918 762 880 c 256
 762 841 792 807 834 807 c 256
 875 807 905 841 905 880 c 256
354 578 m 1
 396 495 474 403 615 403 c 0
 757 403 833 494 877 578 c 1
 821 610 l 1
 774 525 706 481 615 481 c 256
 525 481 457 525 410 610 c 1
 354 578 l 1
EndSplineSet
EndChar

StartChar: compass
Encoding: 9788 9788 593
Width: 1229
Flags: W
HStem: 448 46<0 162 760 922> 722 47<486 563.283>
VStem: 162 48<494 578.675> 436 50<10 173 769 932> 710 50<363.517 448 492 580.419>
DStem2: 125 839 95 802 0.707613 -0.7066<4.91579 197.993 796.168 991.33> 95 139 127 106 0.708621 0.705589<0 194.565 792.769 988.636>
LayerCount: 2
Fore
SplineSet
585 1260 m 1
 647 1260 l 1
 647 1064 l 1
 732 1064 795 1027 854 948 c 1
 1045 1148 l 1
 1105 1107 l 1
 898 901 l 1
 952 830 985 718 985 647 c 1
 1229 647 l 1
 1229 593 l 1
 985 593 l 1
 975 518 948 406 899 345 c 1
 1105 167 l 1
 1042 128 l 1
 854 298 l 1
 785 245 733 221 647 212 c 1
 647 21 l 1
 585 21 l 1
 585 212 l 1
 507 223 440 251 379 295 c 1
 188 129 l 1
 127 169 l 1
 333 342 l 1
 284 405 257 514 247 593 c 1
 0 593 l 1
 0 649 l 1
 247 649 l 1
 247 729 282 839 332 900 c 1
 127 1105 l 1
 182 1149 l 1
 378 949 l 1
 448 1032 518 1057 585 1064 c 1
 585 1260 l 1
615 933 m 256
 437 933 307 790 307 621 c 0
 307 449 440 311 615 311 c 256
 792 311 923 453 923 621 c 0
 923 795 787 933 615 933 c 256
EndSplineSet
EndChar

StartChar: female
Encoding: 9792 9792 594
Width: 1229
Flags: W
HStem: 343 69<175 426 499 747> 577 81<346.207 426 499 579.178> 1069 84<343.449 581.435>
VStem: 183 79<741.948 982.372> 426 73<80 343 412 577> 661 80<741.559 986.112>
LayerCount: 2
Fore
SplineSet
573 753 m 1
 401 778 273 977 273 1177 c 0
 273 1426 439 1580 617 1580 c 0
 797 1580 960 1424 960 1177 c 0
 960 956 823 774 663 753 c 1
 663 548 l 1
 968 548 l 1
 968 462 l 1
 663 462 l 1
 663 95 l 1
 573 95 l 1
 573 462 l 1
 264 462 l 1
 264 548 l 1
 573 548 l 1
 573 753 l 1
616 1426 m 0
 480 1426 370 1278 370 1141 c 256
 370 977 481 854 616 854 c 256
 748 854 862 972 862 1141 c 256
 862 1283 750 1426 616 1426 c 0
EndSplineSet
EndChar

StartChar: male
Encoding: 9794 9794 595
Width: 1229
Flags: W
HStem: 250 75<211.388 439.888> 750 75<207.521 441.935>
VStem: 42 76<417.863 660.889> 531 75<414.96 660.222>
DStem2: 474 782 525 740 0.693164 0.72078<5.0786 360.117>
LayerCount: 2
Fore
SplineSet
632 1082 m 1
 942 1390 l 1
 877 1468 684 1542 684 1548 c 1
 710 1580 l 9
 1153 1580 l 0
 1175 1561 l 0
 1175 1093 l 273
 1144 1069 l 1
 1137 1069 1045 1237 998 1299 c 1
 695 1031 l 1
 762 929 795 809 795 716 c 0
 795 506 637 308 446 308 c 256
 247 308 57 510 57 700 c 0
 57 899 250 1133 448 1133 c 0
 505 1133 566 1115 632 1082 c 1
448 985 m 0
 305 985 168 852 168 704 c 256
 168 552 314 440 448 440 c 256
 579 440 702 543 702 704 c 0
 702 860 583 985 448 985 c 0
EndSplineSet
EndChar

StartChar: spade
Encoding: 9824 9824 596
Width: 1229
Flags: W
HStem: 152 28<168 272.283 656.397 754>
VStem: 456 14<417.894 503>
LayerCount: 2
Fore
SplineSet
616 1440 m 1
 703 1046 1103 957 1103 691 c 0
 1103 568 973 483 863 483 c 0
 767 483 689 542 627 661 c 1
 627 339 803 220 978 220 c 1
 983 186 l 1
 247 186 l 1
 255 220 l 1
 540 220 610 451 610 661 c 1
 552 535 465 483 369 483 c 0
 258 483 127 573 127 687 c 0
 127 975 532 1027 616 1440 c 1
EndSplineSet
EndChar

StartChar: club
Encoding: 9827 9827 597
Width: 1229
Flags: W
HStem: 151 25<150 211.374 718.551 773> 355 416<78.7852 299.617 619.973 842.203>
VStem: 252 415<744.613 993.475> 453 15<445.978 533>
LayerCount: 2
Fore
SplineSet
1014 184 m 1xd0
 225 184 l 1
 231 216 l 1
 258 220 606 290 606 655 c 0
 606 664 606 678 606 699 c 1xd0
 537 555 423 477 303 477 c 0
 135 477 0 576 0 737 c 0
 0 906 139 1068 268 1068 c 0
 307 1068 356 1053 420 1013 c 1
 369 1105 358 1134 358 1185 c 0
 358 1320 462 1428 614 1428 c 0
 762 1428 870 1322 870 1186 c 0xe0
 870 1134 849 1078 806 1013 c 1
 893 1061 906 1068 957 1068 c 0
 1114 1068 1229 889 1229 740 c 0
 1229 588 1104 477 931 477 c 0
 739 477 643 667 625 699 c 1
 625 339 824 251 1002 216 c 1
 1014 184 l 1xd0
EndSplineSet
EndChar

StartChar: heart
Encoding: 9829 9829 598
Width: 1229
Flags: W
LayerCount: 2
Fore
SplineSet
618 149 m 1
 517 525 107 840 107 1121 c 0
 107 1251 243 1302 369 1302 c 0
 468 1302 563 1286 618 1132 c 1
 663 1286 766 1304 862 1304 c 0
 994 1304 1123 1242 1123 1133 c 0
 1123 811 715 525 618 149 c 1
EndSplineSet
EndChar

StartChar: diamond
Encoding: 9830 9830 599
Width: 1229
Flags: W
LayerCount: 2
Fore
SplineSet
615 1425 m 1
 707 1172 880 923 1066 781 c 1
 906 677 718 387 615 159 c 1
 531 350 329 677 168 781 c 1
 355 923 495 1141 615 1425 c 1
EndSplineSet
EndChar

StartChar: musicalnote
Encoding: 9834 9834 600
Width: 1229
Flags: W
HStem: 135.78 236.52<235.114 404.073> 1026.22 20G<419 480>
VStem: 183 297<213.517 321.525> 419 61<357.72 767.58 964.41 1046.22> 626 67<401.088 670.848>
LayerCount: 2
Fore
SplineSet
565 481 m 1xd8
 565 1395 l 1
 640 1395 l 1
 640 1299 l 1
 794 1114 l 2
 849 1037 901 849 901 722 c 0
 901 619 870 528 808 449 c 1
 760 449 l 1
 800 537 819 620 819 700 c 256
 819 873 716 1051 640 1064 c 1
 640 481 l 2xd8
 640 357 533 166 388 166 c 0
 316 166 273 201 273 265 c 0xe8
 273 365 359 499 474 499 c 0
 501 499 530 494 565 481 c 1xd8
EndSplineSet
EndChar

StartChar: musicalnotedbl
Encoding: 9835 9835 601
Width: 1229
Flags: W
HStem: 71 235<87.9738 255.579> 147 235<593.354 761.757> 1025 20G<760.793 839>
VStem: 272 61<292 611 714 807> 779 60<368 732 835 928>
DStem2: 272 900 333 807 0.968822 0.247759<36.0566 498.13> 333 714 333 611 0.965113 0.261835<0 435.153>
LayerCount: 2
Fore
SplineSet
1120 494 m 2xb8
 1120 314 960 180 832 180 c 0
 736 180 717 240 717 279 c 0
 717 378 802 511 919 511 c 0x78
 951 511 981 503 1014 494 c 1
 1014 1013 l 1
 458 795 l 1
 458 360 l 2
 458 180 336 83 191 83 c 0
 69 83 49 145 49 184 c 0
 49 283 142 417 295 417 c 0
 327 417 359 370 383 360 c 1
 383 1221 l 1
 1120 1394 l 1
 1120 494 l 2xb8
458 923 m 1
 1014 1106 l 1
 1014 1217 l 1
 458 1072 l 1
 458 923 l 1
EndSplineSet
EndChar

StartChar: arrowboth
Encoding: 8596 8596 602
Width: 1229
VWidth: 1708
Flags: W
LayerCount: 2
Fore
SplineSet
525 992 m 29
 204 600 l 29
 525 208 l 29
154 -99 m 5
 154 1256 l 5
 1076 1256 l 5
 1076 -99 l 5
 154 -99 l 5
705 992 m 29
 1026 600 l 29
 705 208 l 29
1026 600 m 29
 204 600 l 29
EndSplineSet
EndChar

StartChar: arrowbothv
Encoding: 8597 8597 603
Width: 1229
VWidth: 1708
Flags: W
LayerCount: 2
Fore
SplineSet
975 752 m 29
 615 1091 l 29
 255 752 l 29
154 55 m 1
 154 1145 l 1
 1076 1145 l 1
 1076 55 l 1
 154 55 l 1
975 510 m 25
 615 107 l 25
 255 510 l 25
615 107 m 25
 615 1091 l 29
EndSplineSet
EndChar

StartChar: updownarrowbar
Encoding: 8616 8616 604
Width: 1229
VWidth: 1708
Flags: W
LayerCount: 2
Fore
SplineSet
204 26 m 25
 1026 26 l 25
975 752 m 25
 615 1091 l 25
 255 752 l 25
154 -443 m 1
 154 1145 l 1
 1076 1145 l 1
 1076 -443 l 1
 154 -443 l 1
975 510 m 25
 615 107 l 25
 255 510 l 25
615 107 m 25
 615 1091 l 25
EndSplineSet
EndChar

StartChar: nsuperior
Encoding: 8319 8319 605
Width: 1229
VWidth: 1947
Flags: MW
LayerCount: 2
Fore
SplineSet
905 542 m 25
 905 1098 l 18
 905 1234 835 1319 627 1319 c 10
 605 1319 l 18
 423 1319 327 1102 327 977 c 10
 327 542 l 25
 327 1424 l 25
EndSplineSet
EndChar

StartChar: radical
Encoding: 8730 8730 606
Width: 1229
VWidth: 1708
Flags: W
LayerCount: 2
Back
SplineSet
130 -25 m 1
 130 1638 l 1
 1229 1638 l 1
 1229 -25 l 1
 130 -25 l 1
EndSplineSet
Fore
SplineSet
1123 1755 m 25
 635 5 l 25
 335 975 l 25
 -17 975 l 25
EndSplineSet
EndChar

StartChar: intersection
Encoding: 8745 8745 608
Width: 1229
VWidth: 1947
Flags: MW
LayerCount: 2
Fore
SplineSet
994 0 m 25
 994 1004 l 18
 994 1177 870 1320 626 1320 c 10
 603 1320 l 18
 358 1320 235 1177 235 1004 c 10
 235 0 l 25
EndSplineSet
EndChar

StartChar: infinity
Encoding: 8734 8734 609
Width: 1229
Flags: W
HStem: 353 515<242.444 507.943 726.251 995.303>
VStem: 615 484<464.542 748.689>
LayerCount: 2
Fore
SplineSet
851 867 m 3
 1018 867 1099 740 1099 611 c 3
 1099 464 1012 352 851 352 c 7
 686 352 615 512 615 611 c 3
 615 703 693 867 851 867 c 3
366 868 m 3
 233 868 130 728 130 611 c 3
 130 479 229 353 366 353 c 7
 556 353 615 512 615 611 c 3
 615 703 553 868 366 868 c 3
EndSplineSet
EndChar

StartChar: almostequal
Encoding: 8776 8776 610
Width: 1229
VWidth: 1947
Flags: MW
LayerCount: 2
Fore
SplineSet
139 769 m 17
 187 870 280 945 365 945 c 10
 431 945 l 18
 499 945 551 917 575 893 c 2
 661 807 l 2
 684 784 742 761 815 761 c 10
 866 761 l 18
 957 761 1043 851 1091 935 c 9
139 352 m 17
 187 453 282 526 365 526 c 10
 431 526 l 18
 504 526 551 500 575 476 c 2
 661 391 l 2
 684 367 740 344 815 344 c 10
 866 344 l 18
 982 344 1048 432 1091 517 c 9
EndSplineSet
EndChar

StartChar: equivalence
Encoding: 8801 8801 611
Width: 1229
Flags: W
LayerCount: 2
Fore
SplineSet
130 892 m 25
 1099 892 l 25
130 594 m 25
 1099 594 l 25
130 295 m 25
 1099 295 l 25
EndSplineSet
EndChar

StartChar: lessequal
Encoding: 8804 8804 612
Width: 1229
VWidth: 1708
Flags: MW
LayerCount: 2
Back
SplineSet
130 1612 m 1
 1099 1612 l 1
 1099 -150 l 1
 130 -150 l 1
 130 1612 l 1
EndSplineSet
Fore
SplineSet
-171 659 m 25
 1272 159 l 25
1272 1208 m 25
 176 835 l 25
 1272 461 l 25
EndSplineSet
EndChar

StartChar: greaterequal
Encoding: 8805 8805 613
Width: 1229
VWidth: 1708
Flags: MW
LayerCount: 2
Back
SplineSet
130 1612 m 1
 1099 1612 l 1
 1099 -150 l 1
 130 -150 l 1
 130 1612 l 1
EndSplineSet
Fore
SplineSet
1493 659 m 25
 -42 159 l 25
-42 1208 m 25
 1048 835 l 25
 -42 461 l 25
EndSplineSet
EndChar

StartChar: revlogicalnot
Encoding: 8976 8976 614
Width: 1229
VWidth: 1708
Flags: MW
LayerCount: 2
Fore
SplineSet
1099 594 m 25
 235 594 l 25
 235 235 l 25
EndSplineSet
EndChar

StartChar: integraltp
Encoding: 8992 8992 615
Width: 1229
Flags: MW
LayerCount: 2
Fore
SplineSet
615 -615 m 25
 615 1414 l 18
 615 1490 662 1548 744 1548 c 2
 753 1548 l 2
 901 1548 945 1490 945 1414 c 9
 945 1310 l 25
EndSplineSet
EndChar

StartChar: integralbt
Encoding: 8993 8993 616
Width: 1229
Flags: MW
LayerCount: 2
Fore
SplineSet
615 1775 m 29
 615 -324 l 18
 615 -399 569 -458 487 -458 c 2
 478 -458 l 2
 258 -458 205 -399 205 -324 c 9
 205 -218 l 25
EndSplineSet
EndChar
